<svg xmlns="http://www.w3.org/2000/svg" xmlns:xlink="http://www.w3.org/1999/xlink" width="1280" height="624" viewBox="0 0 1280 624"><defs><path id="a" d="M1157.135 573.21v17.146c.807.188 1.623.367 2.418.554v-18.625l-2.418.925zm-57.906-1.314l22.793 5.577v-6.222l-22.793-5.569v6.214zm-919.255-7.169l-5.511 12.891c3.765-.975 9.077-2.264 15.783-3.73l4.182-12.926c-7.27 1.372-11.949 2.84-14.454 3.765m19.071-4.547l-4.112 12.698a602.905 602.905 0 0 1 14.088-2.761l2.547-11.461a189.69 189.69 0 0 0-12.523 1.524m868.631 4.021l26.484 6.459v-6.21l-26.484-6.474v6.225zm-846.238-6.245c-1.917.091-3.762.214-5.537.336l-2.452 11.03a627.063 627.063 0 0 1 13.218-2.189l1.241-9.541c-2.083.129-4.23.252-6.47.364m912.257 2.14l.152 6.452 1.774.452 8.079-9.703-13.174-.788 3.169 3.587zm-901.561-2.788l-1.193 9.174a754.708 754.708 0 0 1 12.097-1.691l.459-8.491c-3.48.385-7.272.718-11.363 1.008m15.552-1.513l-.461 8.459c4.264-.525 8.664-1.04 13.204-1.517l.033-9.213c-3.743.894-7.965 1.637-12.776 2.271m768.921 7.485c2.843.448 5.671.896 8.468 1.352v-6.854l-8.468-4.483v9.985zm20.558-6.536l25.446 6.217v-6.217l-25.446-6.214v6.214zm-772.547-4.34l-.033 9.909c2.781-.277 5.662-.532 8.539-.777 1.128-.172 2.258-.348 3.388-.516v-13.741c-3.355 2.053-7.221 3.735-11.894 5.125m-77.917-3.423l-5.256 12.292c3.06-.978 7.629-2.2 13.955-3.317l3.839-11.854c-6.245 1.086-10.387 2.218-12.538 2.879m942.332 5.85l.196.218 14.143.841-9.988-11.269-4.351 10.21zm-925.195-9.461l-3.833 11.84c3.588-.525 7.653-.998 12.192-1.388l2.596-11.698c-4.077.354-7.726.78-10.955 1.246m916.796-.024l7.388 8.34 4.336-10.168-11.724 1.828zm-899.191-1.699c-.799.049-1.55.108-2.328.157l-2.594 11.679c1.554-.109 3.123-.214 4.778-.291 2.429-.119 4.733-.252 6.97-.393l1.54-11.818c-2.756.285-5.544.512-8.366.666m12.62-1.149l-1.565 12.011a265.74 265.74 0 0 0 11.15-1.012l.68-12.604a165.03 165.03 0 0 1-10.265 1.605m14.474-2.459l-.702 12.946c4.804-.638 8.956-1.404 12.641-2.322l.046-13.808c-3.735 1.195-7.753 2.263-11.985 3.184m871.088 4.074l11.692-1.825-7.159-8.092-4.533 9.917zm-955.94-2.54l4.501.925v-7.962l-4.501-.921v7.958zm947.295-7.124l7.618 8.599 4.547-9.969-12.165 1.37zm-81.305-1.916l2.428-1.633-2.428-.567v2.2zm-764.996 2.893l-.051 14.089c4.752-1.485 8.586-3.307 11.884-5.538v-14.061c-3.324 2.004-7.322 3.854-11.833 5.51m-71.463-1.696l-5.104 11.952c2.685-.743 6.715-1.678 12.091-2.561l4.284-13.23c-7.85 1.812-11.271 3.839-11.271 3.839m15.936-4.773l-4.361 13.471a204.68 204.68 0 0 1 10.631-1.135l3.005-13.541c-3.493.315-6.566.731-9.275 1.205m16.598-1.686c-1.037.039-2.015.102-3 .161l-3.008 13.553c.522-.028 1.013-.066 1.549-.099 2.998-.161 5.967-.409 8.888-.718l1.732-13.331c-2.006.193-4.048.344-6.161.434m10.415-.927l-1.739 13.328a172.09 172.09 0 0 0 10.059-1.615l.723-13.342a103.22 103.22 0 0 1-9.043 1.629m873.311 6.41l.384.427 12.185-1.366-8.37-9.45-4.199 10.389zm-8.82-9.962l7.799 8.806 4.198-10.393-.018-.011-11.979 1.598zm-851.233.861l-.731 13.527c4.204-.938 8.175-2.014 11.841-3.222l.051-14.169a92.716 92.716 0 0 1-11.161 3.864m780.252-5.474v10.732l3.984.938.972-.654v-14.352l-4.956 3.336zm6.34-4.27v14.357l12.606-8.494-12.514-5.923-.092.06zm-6.34 21.958v3.489l34.963-24.312-1.013-2.046-33.95 22.869zm51.74-18.196l8.37 2.344v6.563l-22.109-5.87-2.62 1.905 34.4 8.684v5.993l-39.761-10.768-2.946 2.14 54.218 14.379v6.904l-60.939-16.393-3.24 2.364 75.234 20.024v4.606l-81.402-20.214-2.958 2.23 93.407 23.297-.111-4.689-42.818-48.353-6.725 4.854zm-164.117 3.037l8.638 2.991v-9.101l-8.638-3.334v9.444zm-652.554-2.764l-.051 14.536c4.607-1.755 8.609-3.72 11.818-5.846v-15.518a84.556 84.556 0 0 1-11.767 6.828m809.36-2.319l2.927.82-2.984-6.021.057 5.201zm25.375 5.839l.075.081 11.978-1.594-8.457-9.549-3.596 11.062zm-9.016-10.179l7.953 8.981 3.598-11.072-.028-.024-11.523 2.115zm-14.768-3.755l3.971 8 6.086-4.396c-1.828-.564-4.863-1.657-9.948-3.678l-.109.074zm-38.258 5.415l12.514 5.934.049-.034-.49-14.029-12.073 8.129zm-7.762 1.899l8.525-5.737-8.525-4.389v10.126zm21.681 3.083l10.85-7.304-11.345-6.651.495 13.955zm-61.511-16.337v10.596l8.981-1.962v-11.401l-8.981 2.767zm87.289 4.903c4.077 1.602 8.137 3.094 10.014 3.629l.697-.497c.428-2.669 1.457-8.771 2.068-12.364l-12.779 9.232zm-46.759-2.973l9.129 4.711.08-.062.231-11.013-9.44 6.364zm58.829 6.343l.188.21 11.519-2.112-9.573-10.81a2013.737 2013.737 0 0 0-2.134 12.712m-47.984-13.653l-.231 11.02 11.831-7.973-11.273-3.258-.327.211zm10.867 6.872l11.346 6.666-.375-14.061-10.971 7.395zm21.815-6.494l.077 7.485.468.949 4.394-3.174-3.671-6.455-1.268 1.195zm-9.489-1.811l.389 14.378.219.435 2.971-1.94.357-8.715-2.534-5.104-1.402.946zm-21.377.217l8.953 2.589-3.202-6.463-5.751 3.874zm-453.25-3.776l-2.42 2.432v39.44l1.52 1.53c3.922-.084 7.858-.15 11.801-.21v-43.363l-10.9-.48v.651zm284.686.074v8.459l8.289-.806v-9.209l-8.289 1.556zm-311.206-.768l-2.421 2.428v40.835l1.523 1.523c4.761-.144 9.554-.283 14.363-.406l1.811-1.814v-39.276l-1.992-1.989v-1.846l-13.284-.582v1.127zm258.239-.216v50.471c2.543.192 5.081.378 7.601.571v-51.96l-7.601.918zm-140.893-1.216a6.732 6.732 0 0 0-5.795 6.669v38.583l2.766.035v-35.146c0-5.006 2.935-5.874 2.935-5.874v41.076c2.598.046 5.189.092 7.772.144v-38.817c0-3.769-3.069-6.735-6.723-6.735a6.655 6.655 0 0 0-.955.065m19.425.47v45.276c1.649.038 3.305.077 4.951.122v-46.064l-4.951.666zm-163.289.273l-2.424 2.424v42.222l1.772 1.772c4.639-.192 9.313-.371 14.002-.543l1.923-1.923v-40.66l-1.993-1.989v-2.333l-13.28-.589v1.619zm172.616-1.518v46.752c2.119.056 4.22.129 6.326.195v-47.798l-6.326.851zm-199.134.824l-2.423 2.421v43.609l2.307 2.312c4.326-.228 8.666-.441 13.029-.651l2.356-2.351V492.43l-1.989-1.982v-2.812l-13.28-.592v2.097zm209.84-2.259v48.523c2.111.066 4.23.126 6.332.199v-49.57l-6.332.848zm-236.363 1.569l-2.42 2.424v44.992l2.335 2.333v.799c4.283-.273 8.605-.525 12.937-.777v-.627l2.421-2.424v-43.435l-1.989-1.986v-3.289l-13.283-.588v2.578zm-26.995 0l-2.079 2.073v45.693l1.997 1.982v2.651c4.446-.325 8.909-.658 13.406-.959v-1.604l2.424-2.421v-44.82l-1.989-1.99v-3.769l-13.759-.613v3.777zm274.066-3.002v50.316c2.118.077 4.22.169 6.33.249v-51.417l-6.33.852zm10.71-1.436v52.17c2.115.088 4.221.179 6.331.267v-53.277l-6.331.84zm-328.904.515l-2.596 2.592v53.651l2.195 2.189v1.594c4.222-.393 8.468-.778 12.748-1.152v-.68l2.308-2.302v-53.76l-3-3.002v-1.212l-11.655-.234v2.316zm-29.531 0l-2.598 2.592v53.651l2.196 2.189v4.098l10.847-.718c.53-.049 1.075-.102 1.611-.15v-3.468l2.307-2.302v-53.76l-2.999-3.002v-1.801l-11.364-.228v2.899zm-24.456-.746l-1.328 1.365v58.829l.635.658v4.053l7.667-.508v-5.457l2.312-2.302v-53.76l-3-3.002v-2.386l-6.285-.129v2.639zm417.559-10.155c-5.135.785-8.932 5.213-8.932 10.418v53.332c1.21.063 2.413.123 3.624.196v-52.478c0-3.185 1.842-6.533 3.68-6.533v59.2c4.618.256 9.199.521 13.759.784v-54.502c0-5.909-4.81-10.54-10.507-10.54-.539.001-1.075.039-1.624.123m242.816 21.515l2.763 2.483v-32.358l-2.763-2.477v32.352zm-311.45-40.7v6.564l5.411-1.555v-7.139l-5.411 2.13zm-447.455-2.721c.006.06.035.099.051.154.407-.294.794-.595 1.127-.886-.099-.105-.158-.196-.286-.305-.296.347-.594.69-.892 1.037m271.229 8.004l28.258 2.077-10.951-11.766-17.307 9.689zm-25.178-11.881l5.018.546v-6.949l-5.018-.532v6.935zm-110.324 1.562l33.924 3.051-15.055-13.149-18.869 10.098zm511.493-8.838v11.286l11.282-1.037v-12.088l-11.282 1.839zm-582.089 4.704l4.671.781v-6.837l-4.671-.778v6.834zm125.282-13.639l6.231.693v-7.965l-6.231-1.037v8.309zm469.032-23.542c1.646 2.399 4.313 3.979 7.347 3.979 2.855 0 5.375-1.419 7.032-3.587l-7.638-4.011-6.741 3.619zm-147.499-11.276c.004 0 .004-.003.013-.003a6.376 6.376 0 0 0-.147-.494c-.004 0 .048.197.134.497m145.79 5.759c0 1.496.362 2.894.95 4.147l6.183-5.013.536-8.487c-4.331.702-7.669 4.6-7.669 9.353m9.77-.865l7.194 5.377c.706-1.346 1.143-2.869 1.143-4.512 0-5.194-3.975-9.397-8.908-9.489l.571 8.624zm-315.709-11.601c.079-.028.154-.067.228-.105-.232.024-.296.059-.228.105m558.052 183.908v-5.527l7.369-2.806 10.02 8.564v10.708l-8.689-5.479v-10.47l-1.33-1.135v10.781l-7.37-4.636zM134.5 550.919l10.207-5.534v10.557L134.5 557.67v-6.751zm164.739-17.434c5.163-1.649 11.135-3.436 16.617-4.746v5.889c-5.456 1.261-11.388 2.987-16.617 4.634v-5.777zm19.035-5.302c3.353-.729 6.426-1.243 8.874-1.377 11.067-.595 13.847 2.543 13.857 2.543l.112-.077v5.405c-2.573-1.205-6.927-2.273-14.187-1.863-2.448.129-5.437.605-8.657 1.278v-5.909zm-170.97 8.2l10.556-9.692 14.884 4.673v13.503l7.091 1.905-2.305 5.072-19.149 2.154v-25.343l-2.074 2.309-.089 23.16-8.913 1.128v-18.869zm466.993-16.432c1.121-.105 1.942-.066 0 .199v-.199zm47.453-2.028l-.009-.224c.161.084.38.203.638.343v.309c-.223-.151-.437-.295-.629-.428m-426.967-1.384c-.443.039-.867.099-1.318.137-.388.028-.724.057-1.11.092.839-1.199 1.791-.922 2.428-.229m383.655-7.005c.035-.004.068.021.102.027l-.021.319c-.028-.122-.048-.213-.081-.346m42.545-5.002c.579-.196 1.043-.309 1.396-.333v2.508c-.347.421-.762.848-1.2 1.233l-.196-3.408zm-409.704-.547c3.139 2.298 2.603 3.269 1.489 3.269-1.268 0-3.286-1.254-1.489-3.269m-34.691-2.682c-.124.861-.93 1.148-1.637 1.148-1.264 0-2.214-.928 1.637-1.148m11.796-2.2c.898.693 1.762 1.437 2.662 2.134a.57.57 0 0 1-.397.133c-.98.006-2.799-1.563-2.265-2.267m734.602-.54c.298.539.57 1.037.824 1.523v.571c-.258-.643-.53-1.323-.824-2.094m-348.689.221v-.228c.771.021 2.751 1.433 2.393 1.433-.166 0-.845-.304-2.393-1.205m-360.74-3.328c1.238-.29 1.637.761 1.621 1.818-.014.932-.357 1.867-.725 1.867-.368.001-.764-.924-.896-3.685m704.971-.102c.183.088.384.26.594.609a3.204 3.204 0 0 1-.594.487v-1.096zm-719.127-.17c1.375 1.369.71 1.954-.04 1.954-.847 0-1.8-.757.04-1.954m725.212 1.382l-.803.235v.788c-.976-2.602-1.789-6.504.803-1.023m-6.085-4.304v-1.334c.75.308 1.549 1.159 1.433 2.053-.57-.078-1.009-.379-1.433-.719m-749.399 1.699c-6.702-6.41 1.507-.9 0 0m828.38-5.966c-.066-.347-.093-.689.04-.672.192 1.005.214 1.345.179 1.345-.046 0-.153-.34-.219-.673m4.679-2.076c-2.351-3.776-.026-.771.464.171l-.17.108a4.064 4.064 0 0 1-.294-.279m-382.209 1.11l-.192-3.321c1.223-.451 2.07-.451 2.592-.168v2.904a2.182 2.182 0 0 1-1.609.711c-.251 0-.514-.039-.791-.126m329.439-4.253c1.087-4.031 3.14-2.581 3.336-1.139.104.743-.28 1.489-1.543 1.489-.473.001-1.058-.107-1.793-.35m-27.138-2.469c-.219-.721.303-1.45 2.154.077-.433.547-.837.746-1.183.746-.489 0-.85-.409-.971-.823m91.098-1.783c2.177-1.278 2.809 2.605 2.186 2.711-.433-1.299-1.897-1.24-2.186-2.711m-172.549-.823l-.276.038c-.617-.889-.384-1.022.276-.038m116.025-.578c-.67-.984-.035-.172.585.655v.104a58.944 58.944 0 0 1-.585-.759m-730.586-1.468c.529-1.316 2.347-.557 3.236.21.541.463.746.918.123.918-.503 0-1.536-.294-3.359-1.128m618.74-2.136c-1.387-.375-2.382-.749-.364-.515 2.783.826 3.435 1.106 3.123 1.106-.323 0-1.661-.294-2.759-.591m-9.02-1.303c.883-.389 1.785-.771 1.794-.764-2.633 1.146-3.521 1.523-3.533 1.523-.01.001.856-.377 1.739-.759m189.01-1.048c-.066.393-.13.796-.179 1.227-.13-.543-.089-1.002.179-1.227m-185.169.298c-1.226-.974 1.954-.658 2.834.309-.421.354-.848.547-1.28.547-.51-.001-1.027-.271-1.554-.856m5.366-2.455c.545-1.198 2.739-1.02 2.147.396-.66-.283-.732-.115-.772.057-.022.102-.035.203-.161.203-.15-.001-.476-.155-1.214-.656m-11.219-.683c1.094-.785 1.736.01 2.342.822-.638.424-.984.617-1.23.617-.398.001-.501-.525-1.112-1.439m13.151-.554c.037-.865 1.28-1.72 1.744.799a3.739 3.739 0 0 1-.641.062c-.843.001-1.129-.43-1.103-.861m-605.101-.785c1.653-.399 2.174.33 2.135 1.068-.031.582-.425 1.167-.883 1.167-.448.001-.959-.557-1.252-2.235m755.183.326c.216-.592.827-1.188 1.231-.455.152.179.296.357.443.543-.675.518-1.121.711-1.393.711-.387 0-.42-.396-.281-.799m-173.105.718c.433-.413 2.744-2.378 3.159-1.366-.455.344-1.798 1.556-2.669 1.556a.66.66 0 0 1-.49-.19m121.052.2c-5.784-3.703.585-1.167 0 0m-9.51-2.024c1.062-.306 1.459.21 1.48.718.009.399-.205.806-.508.806-.294-.001-.66-.382-.972-1.524m-304.358-.081c.894.543 1.276 2.361.536 3.342l-.816.146c-.455-1.271-1.932-4.85.28-3.488m.715-2.15c2.047 1.17 2.604 1.562 2.479 1.562-.218-.001-2.605-1.258-2.479-1.562m-8.754.455c1.102-.757 1.419-.452 1.249-.147-.089.161-.32.319-.643.319a1.24 1.24 0 0 1-.606-.172m295.943-.901c1.075-.073.225 3.686.585 4.739h-.093c-1.825 0-.29-3.649-.492-4.739m-67.836 1.037c.839-1.839 2.373-1.278 2.914-.039v1.518c-.967-.498-1.941-.982-2.914-1.479m-271.031.365c.031-.974.417-1.538.884-1.79l-.228 4c-1.21-1.29-1.145-1.987-.656-2.21M445.64 475.816v-12.69l167.744 9.233v2.768l-2.082 2.08v6.684l-165.662-8.075zm433.329-10.823c1.293-3.058.946-1.912.503-.768-.236.6-.49 1.191-.552 1.191-.036.001-.023-.122.049-.423m-212.856-2.063c.584.753 2.084 1.618.178 2.158-.594-1.437-2.685-.946-.178-2.158m206.057-.522c.237.605.918 2.309.035 2.792-.111-.449-1.089-2.761-.035-2.792m-15.774.214c2.694-1.163 2.399-.732 1.596-.302-.419.221-.967.441-1.307.441-.147.001-.254-.041-.289-.139m.021-.75c.688-.249-1.762.83-3.81 1.727-.254.438-.674.971-.972 1.566l-1.684-.768c.176-.749.43-1.517.629-2.175 2.32.069 2.473.557 2.058 1.31.942-.413 2.17-.952 3.779-1.66m127.428-1.114c1.415.315 1.58.949.496 1.896-1.382-.323-1.543-.954-.496-1.896m1.759 1.072c2.128-3.146.848-.921-.499 1.31-.874 1.43-1.785 2.865-1.848 2.865-.05 0 .539-1.082 2.347-4.175m-376.068-1.58c.939 1.041-1.883 1.948-2.224 2.69-.591-.998 1.557-2.346 2.224-2.69m281.344 2.953c-4.984-4.224 5.223-5.888 0 0m-232.507-4.056c.093.049.183.06.28.126-.029.199-.119.441-.23.7l-.05-.826zm226.73 5.012c-8.686-11.94 1.266-.227 0 0m9.168-5.807v3.072a17.31 17.31 0 0 1-.723.883c-2.035-2.039-.523-3.675.723-3.955m-298.765-.588c.095-.077.181-.158.302-.242.224.305.34.564.384.788l-.686-.546zm253.501-.337c4.386.841 3.342 1.892 1.9 1.892-.986-.001-2.163-.498-1.9-1.892m-244.57-.382c1.121 1.3-1.892 3.447-2.73 3.447-.535 0-.182-.887 2.73-3.447m74.806-.679c.196 1.365-.562 1.832-1.28 1.832-1.205 0-2.313-1.289 1.28-1.832m168.524-.249c1.929 1.254-2.333 3.384-1.182.984h.005c.646.001 1.044-.332 1.177-.984m9.56 2.071c-.331-3.762.116-2.095.397-.421.151.925.249 1.85.143 1.85-.075-.001-.24-.393-.54-1.429m-20.814.104c-.023-1.937.285-4.718.623.053-.018.088-.031.133-.044.21l-.579-.263zm-246.711-2.003c2.788-1.472 4.05-1.682.642.038l-.642-.038zm302.63-.452c.678-.543 1.295-.768 1.839-.816v2.406c-.527-.371-1.121-.865-1.839-1.59m-201.006-1.107c2.583-.067-1.004 3.621-.788 4.203-.037 0-.072.007-.101.007-2.287 0 .871-3.825.889-4.21m7.133.89c.068-1.026.764-2.057.764.994a.933.933 0 0 1-.241.042c-.442 0-.567-.518-.523-1.036m170.948-.474c1.199-1.621 2.479-.57 0 0M252.462 456.4c-3.561-3.267 6.58-3.841 0 0m424.665-2.241c-.355-1.082.296-.13.839.826.375.652.706 1.304.634 1.304-.067 0-.467-.547-1.473-2.13m9.37.841c2.846-2.28 2.596-1.468 1.762-.662-.433.413-1.018.826-1.424.826a.4.4 0 0 1-.338-.164m-384.085-.816c.277-.519.865-1.04 1.642-.753-.845 1.188-1.357 1.583-1.611 1.583-.261 0-.25-.413-.031-.83m271.381-.946c.528.857.819 1.555.987 2.15l-5.397-.329c-1.804-2.781 1.969-1.982 2.207-.238.402-.518 1.078-1.054 2.203-1.583m403.343 1.142c1.735-1.167 3.802-2.333-.45.791-.615.306-.932.435-1.035.435-.228-.001.584-.613 1.485-1.226m-404.036-.978c-6.288-.426-.011-.238 0 0m313.239-.367c.624 3.264.433 4.354.044 4.354-.744 0-2.195-3.965-.044-4.354m-20.968-.242c.326 3.695.231 4.929.035 4.932-.38 0-1.133-4.554-.035-4.932m-38.29-.315c-3.064-1.433-.256-.932 1.186-.424.737.256 1.11.508.176.508-.309 0-.747-.018-1.362-.084m-265.477-1.096c.018-.053.007-.074.026-.134 1.1-.228.919.364.559.732l-.585-.598zm434.648-.214c.535-1.013 4.108.273 3.814 1.45-1.289-.386-2.546-.995-3.814-1.45m-163.536 2.546c-1.24-.956-1.289-1.972-.38-2.069.049-.372.146-.746.354-1.11.441-.05 2.569 3.625 2.72 4.36-.205.049-.404.07-.592.07-.897 0-1.652-.505-2.102-1.251m-159.254-3.611c.075.845-.233 1.202-.295 2.095a.809.809 0 0 1-.25.042c-.951-.001-1.312-1.829.545-2.137m-412.852.252c1.971-.816 1.598-.2.635.634 1.753 1.808-.768 2.543-1.127.886-.837.606-1.679 1.125-1.924 1.125-.279 0 .224-.677 2.416-2.645m499.994.568c2.275-1.752 1.446-1.044.554-.333-.473.378-.969.764-1.004.764-.022 0 .099-.124.45-.431m346.476-.102c1.691-1.097 3.863-2.193 1.249.098-1.686.837-2.475 1.152-2.699 1.152-.316 0 .481-.627 1.45-1.25m-79.248-2.207c.046.351-3.122 1.958-3.354 1.958-.121 0 .647-.49 3.354-1.958m-177.759 1.093c-.161-.865.522-1.737 1.909-.557-.353.462-.7.991-.165.494.13-.189.179-.277.263-.407-.029-.024-.066-.06-.098-.087.362-.48.683-.812.098.087.309.277.644.627 1.015 1.121-.626.344-1.152.483-1.585.483-.861.001-1.329-.567-1.437-1.134m153.309 1.896c-4.066-7.461 2.462-1.346 0 0m-242.478-2.561c.155-1.37 1.106-1.293 2.137-1.191 0 .722-.94 1.24-1.736 1.24-.142 0-.277-.022-.401-.049m-140.367 3.649c-1.43-7.843.047-5.229.536-2.609.245 1.303.245 2.609-.485 2.609h-.051m148.098-1.457c-9.578-4.273 2.845-5.905 0 0m114.709-2.991c1.474-.914 3.734-1.829.942.528-.945.312-1.494.441-1.758.441-.522.001.036-.483.816-.969m-287.983-.287c.628-.501 2.383-1.002 5.553-.852-2.144 1.296-3.802 1.73-4.791 1.73-.995.001-1.311-.44-.762-.878m270.265.052c-.095-1.457 1.029-.122 1.263-1.457 1.779-.203 1.586.253.856.708-.6.375-1.571.749-2.094.749h-.025m-269.815-1.233c-.305-.609-.066-1.209 1.074.563a.673.673 0 0 1-.243.042c-.39.001-.675-.304-.831-.605m184.873-.564c-1.676-.378-1.387.823-2.399 1.366-1.111-2.07 1.619-2.567 2.399-1.366m-232.371-1.541l14.447 14.838 29.392 1.772 9.228 7.387-153.896-8.998v-7.093l59.924 3.604 40.905-11.51zm237.779-.266c2.178.756 2.748 2.038 2.584 3.201l-3.338.683c-.013-.896.183-2.126.754-3.884m183.791.007c.66.283.205 1.096.159 1.552-1.917-.823-2.194-2.578-.159-1.552m-618.149.757l-1.121.515c-2.63-2.775-.689-1.832 1.121-.515m352.617 6.739l18.482-8.288 25.214 10.187v8.291l-24.983 4.15v-19.748l-1.958.917v19.16l-16.755 2.774v-17.443zm167.168-7.864c-.42-1.601 3.331-1.415 0 0m-94.145-1.583c.885 2.718.969 3.622.777 3.622-.362 0-1.7-3.125-.777-3.622m-78.101 1.839c.669-.956 1.124-2.479 2.641-1.657-.519-.038-.856.417-1.188.88-.314.438-.623.872-1.069.872a.894.894 0 0 1-.384-.095m141.986-.725c.369-.949 1.19-1.307 2.172-1.227-.183 1.139-.286 1.391-.669 1.391-.295 0-.745-.143-1.503-.164m-27.138.193c4.43-3.384.955-.691 0 0m-66.604-.099c1.026-1.607 2.293-3.219.375.449-.799.97-1.17 1.338-1.271 1.338-.157 0 .333-.893.896-1.787m48.892-.645c-.058-.602 1.009-1.054 1.41-1.166 1.121.466-.179 1.604-.937 1.604-.248.001-.441-.122-.473-.438m-200.511-1.344s4.069-.032 0 0m241.973.62c.666-.214 1.237-.431 1.96-.669.156.953-.343 1.523-.905 1.523-.385 0-.795-.262-1.055-.854m-105.469-.031c.473-.693.695-1.576 1.877-.897-.164.624-.369 1.083-.669 1.384l-1.208-.487zm130.739-.624c-.785-.603-.964-1.197 1.842.375-.084.172-.236.245-.438.245-.404 0-.989-.316-1.404-.62m-8.134 1.748c.014-2.309.04-4.624.04.438a161.824 161.824 0 0 1-.034 2.154c-.015-.001-.009-1.29-.006-2.592m177.037-2.596c2.302 2.196 1.909 3.101 1.079 3.101-.972-.001-2.552-1.241-1.079-3.101m-72.543 1.748c-.174-4.785 3.466-.834 0 0m-371.216-2.522c-.979-.127-1.669-.253 1.335.115-.004.007-.035.014-.081.014-.203 0-.765-.066-1.254-.129m219.435-.087c1.468-.883 2.904 1.724 2.141 2.784-.156.105-.289.158-.41.158-.826 0-.853-2.284-1.731-2.942m-288.45 1.516c-.834-1.649 5.85-2.911 0 0m18.556 1.142l-3.106.88c.033-.312.07-.631.112-.897-.311-.228-.405-1.001.557-2.266.022.073.016.126.037.196 1.047-2.068 2.595.259 2.4 2.087m304.065-2.431c.046-.473.648-.942 1.139.312-.276.123-.495.176-.665.176-.371-.001-.501-.25-.474-.488m-272.733 1.327c-.396-1.043-.094-2.077 2.013-2.045 1.126 3.068.816 4.091.133 4.091-.69 0-1.751-1.022-2.146-2.046m-47.353-1.246c2.015-1.979 1.233-.813.271.36-.583.715-1.23 1.426-1.349 1.426-.095 0 .159-.466 1.078-1.786m341.349-.981c1.517-.868 1.869-.393 1.685.088-.11.283-.413.571-.779.571-.286 0-.612-.176-.906-.659m-62.676 1.072c-1.257-2.799-.672-1.794-.19-.799.25.515.468 1.026.401 1.026-.027.001-.093-.066-.211-.227m-426.392-.715c-.284-.351-.561-.7-.841-1.051 1.415-.49 1.722-.095 1.625.354.955-.402.611.123.064.645-.698.669-1.714 1.342-.742.066h-.059c-.016 0-.035 0-.047-.014m167.58-.812c2.669-1.24 2.771-.697 2.14-.15-.351.301-.918.603-1.399.603-.31-.001-.582-.124-.741-.453m169.402-.029c1.263-1.706 2.668-.228 3.314 1.254.438 1.002.526 2.011-.018 2.011-.499 0-1.524-.83-3.296-3.265m143.471-.384c1.638-1.783 2.686-.865 3.216.742.51.154.812.599.188.693.455 2.039.228 4.642-.574 4.642-.618 0-1.581-1.545-2.83-6.077m-172.977-1.161c.247.978.3 1.363.26 1.363-.042.001-.201-.577-.26-1.363m-109.498 1.048c-4.418-.858 7.533-2.252 0 0m159.334-.168c-.265-1.188.878-1.02 1.823-1.278.225.78-.508 1.646-1.177 1.646-.235-.001-.463-.112-.646-.368m-340.305-.753l-.068.024c-.822-.787-1.708-1.695.068-.024m605.36-.96c-.473.616-4.311 4.872-4.337 4.872-.009 0 1.062-1.218 4.337-4.872m-399.301 4.746c0-10.662.704-.039 0 0m181.227-3.125c-4.186-2.332 2.631-2.409 0 0m-29.966.267c-2.343-2.056 3.135-3.905 0 0m9.074-1.436c2.181-1.061 5.049-2.119-.616.883-.5.141-.812.2-.964.2-.472 0 .464-.547 1.58-1.083m-167.505-1.061c.009-.28.521-.564 1.996-.459-.285.707-.788.935-1.215.938-.425.001-.784-.241-.781-.479m190.877-.651c.534-.046 1.018 1.022 1.315 2.094.294 1.044.411 2.088.232 2.088s-.655-1.045-1.547-4.182m-61.697 2.437c.142-3.783 2.117-2.386 2.627-.991.263.725.133 1.446-.854 1.446-.417 0-.997-.129-1.773-.455M683 435.531c-.461-1.355 1.663-.742 2.729-.126.593.344.856.684.156.684-.472 0-1.368-.151-2.885-.558m-68.644-.791c.671-.498-.328.676-1.408 1.849-.902.984-1.858 1.973-1.923 1.973-.063 0 .746-.96 3.331-3.822m-30.605-.154c2.717 1.909 3.351 2.55 3.1 2.55-.443 0-3.595-1.954-3.1-2.55m-45.772 1.215c-.987-2.153-.488-1.068.008.015.287.63.577 1.257.577 1.257s-.16-.34-.585-1.272m256.348-.073c-.406-1.737-.706-3.481.517 1.737h-.009c-.075 0-.303-.868-.508-1.737m95.57.655c-.263-.645-.704-.883-1.352-.711-.048-3.128 5.493-1.633 1.352.711m-232.902-1.188l-.075-1.311c1.172 0 .995 1.447.404 1.447a.501.501 0 0 1-.329-.136m96.583-.07c.969-2.186 2.223-1.159 2.41.168-.361.26-.732.406-1.116.406-.418 0-.851-.175-1.294-.574m-158.183 1.485c-2.039-.539-.312-2.018-1.09-2.735.578-.165 1.506.623 2.009 1.411.457.711.562 1.426-.266 1.426-.174 0-.388-.028-.653-.102m273.126-1.355c.165-1.439 1.165-2.879.816 1.422a1.034 1.034 0 0 1-.179.018c-.602-.001-.726-.722-.637-1.44m-80.055-1.611a1.29 1.29 0 0 1-1.13 1.565h-.035c-1.682 0 .896-1.51 1.165-1.565m-238.007.918c.417-1.188 2.186-2.386 2.43.179 1.334-.154 1.561.848 1.307 1.853-.445 1.724-2.348 3.446-2.636-.687h-.017c-1.135-.001-1.322-.677-1.084-1.345m340.608-1.181c-.402.34-.786.329-1.161.312-.316-.011-.632-.028-.972.161-.882-1.535 1.491-1.44 2.133-.473m-582.137 7.653l11.596-8.477 20.593 4.964v20.508c-8.143.165-14.528 1.363-19.379 2.865v-26.088l-2.079 1.901v24.888c-7.531 2.689-10.73 5.916-10.73 5.916v-26.477zm352.177-8.655c-.494-.256-.86-.508.464.039.242.179.286.245.225.245-.09 0-.412-.143-.689-.284m-454.599.823c1.455-2.291 1.356-1.506.923-.718-.225.402-.529.799-.766.799a.197.197 0 0 1-.157-.081m535.468-.998c1.142-.732 1.877-1.097 2.859.098-.45.403-1.012.726-1.557.726-.464-.001-.92-.228-1.302-.824m-63.33 1.124c-.848-2.802-.34-1.769.026-.731.188.532.344 1.075.245 1.075-.035 0-.124-.102-.271-.344m60.054-.722c2.735-2.196 3.013-1.303 2.41-.417-.317.477-.894.953-1.474.953-.324.001-.651-.15-.936-.536m-12.719-.857c-.481.374-.949.308-1.413.237-.521-.08-1.031-.157-1.539.393-.888-1.082 2.373-1.958 2.952-.63m-153.806-.043c-.144-.795.184-1.586.892.701a.576.576 0 0 1-.306.108c-.325.001-.518-.406-.586-.809m210.102.509c2.212-1.339 5.357-2.68.909.742-1.329.49-2.064.68-2.385.68-.616 0 .298-.708 1.476-1.422m-82.049-1.314c.772-.393 2.797-.109 3.235 1.001-.147.116-.381.172-.644.172-.881 0-2.212-.574-2.591-1.173m110.007.714c.322-1.769 4.274-.868 3.926 1.79-1.173-.231-4.042-.301-3.926-1.79m-116.498.379c-1.562-2.704.98-1.787 1.762-.869.397.463.349.921-.902.921-.24 0-.526-.014-.86-.052m53.694-.13l-.641.031c.115-2.41 1.15-2.56.641-.031m102.821-1.439c-.049-.739.45-1.479.638.735-.018.004-.04.004-.058.004-.401 0-.558-.372-.58-.739m139.875 2.85c-.34-5.537.539-3.66.744-1.779.107.949.046 1.892-.424 1.892a.61.61 0 0 1-.32-.113m-465.716.656c-.984-.812-1.391-4.214.767-4.399-.212.98 1.724 5.159.584 5.159-.267-.001-.696-.221-1.351-.76m61.475-3.594c-.212-.771.132-1.538 1.771-.161-.104.203-.221.41-.327.609-.203.336-.415.47-.616.47-.374 0-.702-.459-.828-.918m190.265-1.082c1.923-.256 3.413 2.406 1.66 2.536.473-2.046-1.159-1.205-1.66-2.536m43.988 2.333c.161-.915.326-1.818.519-2.684.525-.133.664.627.552 1.377-.102.693-.413 1.387-.825 1.387a.44.44 0 0 1-.246-.08m-263.983-.474c.035-1.569 1.692-3.832 4.109-1.148-1.944 2.189-3.114 2.571-3.69 2.203-.203.15-.419.298-.685.452-.18-.491-.032-1.033.266-1.507m-183.953-.437c1.378-3.744 1.614-1.741 1.393.267-.134 1.177-.421 2.356-.724 2.356-.236 0-.478-.696-.669-2.623m350.901.329c-11.928-4.256 1.067-2.238 0 0m-65.034-3.391c1.289.907.441 1.958-.112 1.962-.389 0-.628-.518.112-1.962m8.748.438c-.718-.431-1.182-.865 1.004.26.098.137.08.196-.006.196-.172 0-.619-.228-.998-.456m132.38-.619c1.066-.127.691-.021.169.076-.356.07-.78.137-.891.137-.103-.001.044-.056.722-.213m-205.776-.523c.741.466-.173 4.529-.448 4.536-.146 0-.109-1.135.448-4.536m-74.242 1.212v-1.307c.678.357 1.147.795.764 1.804a2.935 2.935 0 0 1-.764-.497m207.096-1.418c.965 1.365 1.239 1.817 1.195 1.817-.083 0-1.333-1.649-1.195-1.817m171.13-.704a12.855 12.855 0 0 1 2.018-.105l-1.072 1.766c-.433-.299-.793-.81-.946-1.661m-320.235 1.281c.042-1.387 1.225-2.784 1.894 1.202-.34.15-.624.217-.861.217-.786 0-1.058-.704-1.033-1.419m152.799 1.37c-7.397-.746.223-5.909 0 0m-339.145-3.065c1.464.126 2.417 1.041.166 1.346-.059-.442-.111-.89-.166-1.346m-34.013 4.862c-1.206-4.635-1.856-9.269 1.951 2.325.154 1.885.081 2.624-.124 2.628-.373 0-1.181-2.476-1.827-4.953m260.586-3.468c-.441-2.781 1.925-1.688 2.86-.589.495.585.586 1.167-.364 1.167-.506.001-1.306-.158-2.496-.578m151.107-1.377c1.393-.861.916-.367.296.134-.371.297-.799.599-.896.599-.078 0 .057-.192.6-.733m-42.559 1.78c-.29-4.146-.026-1.751.196.638.134 1.454.254 2.9.223 2.904-.021 0-.138-.929-.419-3.542m-322.318-2.199c4.399-.284 3.207-.147 1.527-.007-.957.077-2.065.153-2.391.153-.235 0-.063-.038.864-.146m539.929-.12c1.513-.669 2.896-.69 1.919 1.32l-1.919-1.32zm-180.194-.392c1.493-.697 1.252 1.251.069 1.653-.15.053-.28.077-.387.077-.847 0-.509-1.386.318-1.73m121.699 1.695c.21-.774-.946-1.139-.438-1.937.72.504 2.044 2.182 1.251 2.182-.17 0-.43-.073-.813-.245m-507.7-1.972c.818-1.576 1.878.298 1.788 1.229-.938-.318-2.088-.059-1.788-1.229m496.833 1.398c1.526-4.448 1.669-.21 0 0m-348.852-.861c-.557-1.271-1.108-2.547.564 1.271-.008 0-.288-.635-.564-1.271m9.096-.929c1.184-1.748 2.278.567 1.095 1.1a5.033 5.033 0 0 0-1.095-1.1m149.29 1.702c-.374-2.382.71-4.76 2.099 2.357a1.809 1.809 0 0 1-.3.031c-1.057.001-1.611-1.194-1.799-2.388m31.255-2.623c1.741.543-.133 1.839-1.145 1.898.174-.76.554-1.39 1.145-1.898m148.704 1.59c1.142-2.494 3.142-1.656 2.976-.819-.084.42-.718.841-2.27.841a12.784 12.784 0 0 1-.706-.022m77.452-1.272c.208-.689 1.029-1.075 2.243.68a3.788 3.788 0 0 1-.655.413l-1.588-1.093zm-422.932.088c1.115-1.244 2.972-.75 3.781.371-.228.154-.724.228-1.284.228-.93 0-2.053-.206-2.497-.599m-169.997-.07c.071-.638.443-.978 1.102-1.013.318.869.115 2.256-.318 2.256-.219 0-.488-.34-.784-1.243m-13.948-.645c.1.063.189.137.247.256l-.883.536-.357.444c.013-.045.116-.196.26-.385a95.42 95.42 0 0 0-1.888 1.138c-.359-.815 1.716-2.438 2.586-2.021.582-.707 1.028-1.208.035.032m56.781-.122c.1-.743 1.273-1.479 1.638.658a3.23 3.23 0 0 1-.73.091c-.74 0-.959-.375-.908-.749m493.986.105c1.704-2.868 1.326 1.947.741 2a.723.723 0 0 1-.089.007c-.914 0-1.078-1.489-.652-2.007m-363.166-.985c.701.554 2.055 1.202.999 2.271-.853-.467-1.948-1.262-.999-2.271m460.698-.059c.994.361 1.093.508.891.508-.246 0-.929-.221-.891-.508m-270.584.035c1.125-.115 1.09-.07.786-.024a3.715 3.715 0 0 1-.567.049c-.098-.001-.179-.003-.219-.025m100.024-.146c1.534 1.789-.236 3.513-1.133 3.513-.669-.001-.856-.946 1.133-3.513m-134.513.927c-.045-.858.713-1.713 2.516-.133-.673.844-1.227 1.152-1.645 1.152-.541.001-.847-.511-.871-1.019m-169.887-.424c.469-.784 2.853-1.181 2.529.512l-2.529-.512zm581.013.498c2.102-2.154 3.771-1.19.982.925-.322-.312-.656-.613-.982-.925M312.148 421.3a3.14 3.14 0 0 1-1.766 1.229c-1.531-1.092.854-1.614 1.766-1.229m651.283-.557c2.633.837 2.013 1.369 1.099 1.369-.795 0-1.812-.406-1.099-1.369m-459.167.694c-.092-1.062 1.943-1.446 2.497.497l-2.497-.497zm-136.061.469c.462-1.328 1.737-2.648 1.411.893-.512.351-.877.49-1.126.49-.547 0-.525-.693-.285-1.383m188.977-.487c-.889.217-1.772.459-2.644.725-.506-2.063 2.048-2.522 2.644-.725m174.401.276c.089-1.628 1-3.254 1.418 1.335-.294.234-.535.336-.731.336-.563 0-.731-.837-.687-1.671m164.17 1.927c1.695-5.636 2.543-3.691 2.199-1.751-.17.984-.651 1.968-1.476 1.968-.213 0-.455-.069-.723-.217m-620.11-2.066c.68-3.016.562-1.611.342-.21-.124.791-.287 1.579-.359 1.579-.052 0-.057-.371.017-1.369m425.48-1.832c.579-.063 3.327-.645 3.47.406-.445.035-1.312.231-2.074.231-.638 0-1.21-.14-1.396-.637m60.483-.228c.687.179 5.479 1.155 2.194 1.691a1.947 1.947 0 0 1-.329.028c-.986.005-2.115-.682-1.865-1.719m-344.482 1.25c-.32-1.4-.399-2.802.678 1.289-.035.081-.071.119-.112.119-.175 0-.403-.707-.566-1.408m526.863-.161c1.384-2.49 2.717-1.194 3.064.099.205.753.072 1.51-.597 1.51-.495-.001-1.293-.428-2.467-1.609m-601.692-1.881c.589 1.143.428 1.622.186 1.622-.284 0-.673-.624-.186-1.622m469.629.232c.374-.68 1.695.031 2.565.739.623.504 1.026 1.012.691 1.012-.307 0-1.258-.442-3.256-1.751m-155.262 1.611c.11-.806.71-1.573 1.629-2.298 1.07 1.016 1.053 2.592-.371 2.592-.338 0-.753-.087-1.258-.294m-66.523-1.335a51.072 51.072 0 0 1-.622-1.166c.942 1.758 1.256 2.34 1.256 2.34s-.316-.589-.634-1.174m218.59-1.191c.286.98-1.153 1.219-2.128 1.72-.297-.977 1.211-1.247 2.128-1.72m-152.686.613l-.032-.623c.514.351.816.708.468.708-.093 0-.237-.029-.436-.085m-144.418-.354c.537-.76 1.636.066 2.119.354-.304.445-.816.617-1.279.617-.716 0-1.308-.424-.84-.971m267.014 1.492c.963-1.366 2.601-2.732 3.333-1.197-2.244 2.29-3.391 3.071-3.838 3.071-.493 0-.155-.938.505-1.874m-43.201-1.971c.678.494-.775 2.641-1.093 2.647-.175 0 0-.669 1.093-2.647m-308.72-.015c0-.003.342.035.762.088l-.009.004-.753-.092m109.951 1.472c.03-1.45-1.263-1.236 1.24-1.503.128.837-.655 2.035-1.039 2.035-.138 0-.225-.154-.201-.532m-21.717-1.777c2.184.203 1.031.54 1.854 2.204-.964-.189-1.719-1.268-1.854-2.204m307.478.327c-.603-.634-.812-1.261 1.196.539a.233.233 0 0 1-.201.099c-.282-.001-.687-.323-.995-.638m150.047-.676c1.013-.914 1.472-.074 1.534.773.035.582-.111 1.167-.406 1.167-.268 0-.665-.494-1.128-1.94m-676.251-.032c.255-.245.546-.374.877-.301a40.94 40.94 0 0 1-.189.914c.021.018.053.049.066.063a1.748 1.748 0 0 1-.201.563c-1.867 8.438-2.352 2.687-1.194-.196-.468-.385-.965-.865-1.373-.773.326-1.461 1.29-.883 2.014-.27m441.509-.2c.029-.722 1.168-1.437 1.784.638a3.726 3.726 0 0 1-.749.091c-.777 0-1.043-.364-1.035-.729m-117.107-.185c.074-.217.203-.445.311-.62 1.521-.368 2.096-.028 1.963.312-.088.238-.519.474-1.199.474a3.858 3.858 0 0 1-1.075-.166m161.415-1.234c1.24.354-3.274 1.048-4.305 1.048-.642 0 .062-.269 4.305-1.048m57.5-.206c.61-.231.848.08.865.396.017.234-.09.473-.26.473-.164 0-.386-.217-.605-.869m-483.438 1.475c.854-2.764.638-1.517.329-.273-.168.693-.371 1.391-.435 1.391-.042-.001-.022-.306.106-1.118m403.071-1.278c-2.549-1.381-.839-.813.45-.242.695.305 1.274.609 1.009.609-.158 0-.6-.102-1.459-.367m-333.09 23.836v-15.409l19.556-9.342 68.699 13.847v21.633l-8.479 3.286-60.221-5.538V417.5l-2.596 1.73-.089 32.534h-3.717l-13.153-12.456zm290.743-21.157c-.695-.273 2.364-7.983 0 0m-216.73-.641c.291.105.585.21.861.273-.047.704-.83.62-1.572.42-.317.221-.616.291-.85.063.06-.099.105-.165.167-.263a3.392 3.392 0 0 0-.54-.144c.183-.554.562-.666 1.013-.603 3.984-6.23 2.572-1.819.921.254m-4.517-3.555c.254.483.91 1.061.422 1.481a.614.614 0 0 1-.384.14c-.611 0-1.045-1.082-.038-1.621m55.525 1.239c-2.252-1.919-1.326-1.25-.519-.585.408.34.788.68.706.68-.021 0-.08-.031-.187-.095m467.034.186c-2.61-.241 1.859-3.604 0 0m3.35-1.639c3.221-.792.473 1.706-1.463 2.683-1.469-1.25 2.887-1.418 1.463-2.683m-612.101.042c1.008-.823 1.465 1.166 1.465 1.698-.013.351-.186.494-.417.494-.729.001-2.051-1.372-1.048-2.192m535.676 1.027c.709-.48.501-1.271 1.357-1.688.455.872-.156 2.144-.781 2.144-.204-.001-.406-.134-.576-.456m-217.584-.351c-.267-2.711 3.205-.788 0 0m-325.276-1.479c4.464.172 2.689.302.921.302-1.452 0-2.9-.084-.921-.302m93.956.656c1.553-1.622 2.131-.879 2.003-.126-.068.417-.36.841-.826.841-.317 0-.713-.197-1.177-.715m295.976.378c.277-2.57.3-1.495.242-.416-.04.585-.095 1.17-.156 1.17-.032 0-.063-.211-.086-.754m-412.381-1.023c5.091-1.706 6.995.417 7.073 2.536.059 1.58-.896 3.159-2.301 3.163-1.341 0-3.094-1.443-4.772-5.699m507.948.32c.139-.642.759-1.279 2.154-1.104-.574 1.674-1.177 2.234-1.601 2.234s-.677-.563-.553-1.13m-70.9-1.22c3.391 1.3 3.345 1.896 2.466 1.896-.947-.001-2.859-.687-2.466-1.896M529.042 414c-14.946-4.687 10.717 0 0 0m-101.87-1.117c-.428.182-.843.371-1.262.554-.171-1.265.686-2.411 1.262-.554m-69.134-1.303c1.517-.235 2.385.672 2.711 1.579.289.81.15 1.618-.331 1.618-.479 0-1.302-.801-2.38-3.197m299.906 3.45c-1.324 2.164-1.73.448-1.658-1.254-.214-.172-.375-.309-.554-.452l-.005-.144c.188.15.38.301.567.455a1.112 1.112 0 0 0-.009.141l1.289 1.047c.19.042-.49-.546-1.28-1.188.116-2.079.929-3.978 1.65 1.395m95.875-2.589c.245-.788 1.263-1.569 2.65-.273-1.004.907-1.699 1.229-2.134 1.229-.529 0-.668-.479-.516-.956m-18.865-1.099c.638.746.632.998.444.998-.289 0-1.011-.62-.444-.998m-227.715 1.541c-.339-1.198-.229-2.41 1.341-1.114.179 2.074-.022 2.781-.323 2.781-.328 0-.781-.833-1.018-1.667m401.659.872c-2.511-4.735 5.17-1.863 0 0m-427.726-.084c.956-4.014.647-2.413.294-.81-.192.855-.396 1.71-.43 1.71-.018 0 .018-.252.136-.9m95.341-2.585c2.958 3.607 4.063 5.184 3.953 5.184-.123 0-1.733-1.934-3.953-5.184m-261.992 2.476c-.217-2.015 1.284-4.035 6.093-1.717-1.239 3.328-2.62 4.47-3.753 4.47-1.242 0-2.189-1.377-2.34-2.753m374.696-2.756c1.014-.354 1.357.483 1.357 1.327 0 .704-.242 1.405-.53 1.405-.291 0-.626-.684-.827-2.732m-154.722-.126c1.202 1.058.587 1.923-.145 3.033-2.206-1.205-.946-1.401.145-3.033m192.585 2.08c.4-3.653.25-2.062.084-.479-.09.872-.188 1.744-.191 1.744-.009-.001.021-.35.107-1.265m-400.269-3.069c.033-.027.293.077.522.183.199.095.373.182.345.182-.032 0-.259-.087-.867-.365m474.653.925c.858 1.854 1.62 1.104-.018 3.388-.476-1.068-1.476-6.624.018-3.388m-337.326 2.733c.063-.413.144-.914.254-1.59 1.035-4.68.32-.606-.132 1.611l-.122-.021zm440.531-4.025c-.251 2.168 2.784 3.257.066 3.422.219-1.026-2.64-2.567-.066-3.422m-225.262-.14c.072.673-.018.897-.121.897-.199 0-.464-.796.121-.897m-312.029.984c-5.421-1.59 6.497-1.384 0 0m166.531-1.243c.292 1.401-.538 1.58-1.77 1.709.258-1.53.093-1.31 1.77-1.709m176.108 1.572c-.121 1.033-1.468 2.07-4.876 1.339.517-.929 1.038-1.602 1.543-2.063-.406-.172-.88-.379-1.514-.655-.972-.508.395.084 1.571.616a.204.204 0 0 0-.058.039c2.298.998 1.307.521.058-.039 1.868-1.678 3.422-.456 3.276.763m-203.987.578c-15.772-2.658 2.242-3.404 0 0m52.175.035c-4.762-1.631 4.163-4.732 0 0m8.403-1.975c1.176-1.148 2.693-.375 1.699 1.135a25.352 25.352 0 0 0-1.699-1.135m-24.767.098c.825-.655 1.492-1.3 1.883.367-.554.154-3.083 1.313-3.445.312.04.004.086.008.13.008.512 0 .994-.348 1.432-.687m-72.342-.473c-9.885-.228 8.215-1.142 0 0m200.29 1.086c-.848-2.764 1.91-1.828 2.471-.893.286.469.02.941-1.534.941-.272.001-.58-.017-.937-.048m-85.449-2.014a3.21 3.21 0 0 1 1.005 1.909 1.178 1.178 0 0 1-.267.031c-1.212 0-2.221-1.811-.738-1.94m-86.501 1.033c.876-1.678 1.26-.988 1.183-.302-.042.372-.216.746-.519.746-.179.001-.399-.125-.664-.444m343.195 1.552c-6.927-3.139.523-4.428 0 0m-399.44.077c-1.515-5.983-.4-2.165.108-.049.315-.137.399-.145.023.098.044.172.08.326.112.473l-.099.042c-.044-.161-.079-.301-.119-.455-.384.234-1.104.641-2.34 1.31-.072-.207 1.548-1.072 2.315-1.419m-58.981-.088c-6.736-5.132 1.925-3.761 0 0m162.492-2.105c.217-2.385 1.651-1.17 1.408.127-.469-.043-.942-.088-1.408-.127m228.183-1.365c.695 1.365-1.275 2.23-2.231 2.23-.837 0-.906-.658 2.231-2.23m41.458-.194c1.039.47 1.615 1.227 1.146 2.218-.066.206-.17.298-.289.298-.527 0-1.37-1.686-.857-2.516m-203.151-.245c.771-.214 1.537.27 1.908.971.721-.609 1.675-.858 1.708-.021-.082.896-.177 1.804-.273 2.701-1.478-.172-2.064-.642-2.173-1.167-.415-.57-.836-1.135-1.262-1.695a9.448 9.448 0 0 1-1.087.554c-.375-.793.532-1.255 1.179-1.343m116.978 1.702c-8.552-2.602-1.628-2.21 0 0m-295.347-1.916c1.748.512 1.275 1.636.699 1.636-.353 0-.742-.416-.699-1.636m552.4-.034c.753.619 2.234 1.729 1.382 2.486-.258-.269-2.02-1.751-1.382-2.486m-619.439 1.782c1.925-.638 3.855-1.261 5.778-1.905.159 1.051-3.26 2.21-4.914 2.21-.47 0-.796-.091-.864-.305m481.459-1.982c1.482.396-.449 3.759-.998 3.762-.291 0-.193-.943.998-3.762m113.069-.775c.643 1.426.888 3.104 1.355 4.589-.013 0-.035.004-.053.004-1.205 0-2.329-4.509-1.302-4.593m-362.689 1.371c-.347-.386-.413-1.04.66-1.545.295.609.395 1.033.388 1.327.012 0 .022 0 .036-.007 7.939 1.805 7.589 2.441 5.135 2.441-3.322 0-10.501-1.166-6.219-2.216m137.785.518c-3.771-3.92 2.243-1.465 0 0m168.924-.017c-4.973-4.12.799-1.164 0 0m-530.181-1.517c.146-.498.877-.991 2.103-.235-.146.417-.289.778-.802.512-.373.252-.662.344-.877.344-.384-.001-.518-.313-.424-.621m384.53-.817c2.454.581 1.878 1.289 1.07 1.289-.556.001-1.225-.339-1.07-1.289m-91.802-.308c.05.757 2.039 2.964.652 3.398-.193-.473-1.615-3.006-.652-3.398m-319.19-.683c.757-.133 4.366 2.368 4.488 2.746a1.588 1.588 0 0 1-.297.024c-1.399.001-3.827-1.47-4.191-2.77m541.436.97c-1.021-1.194 2.543-1.226 2.846-1.022-.468.869-.842 1.938-1.539 1.938-.344-.001-.759-.257-1.307-.916m-5.21-.605c.744-1.223.502-.726.228-.231-.147.27-.309.54-.335.54-.02-.001.009-.089.107-.309m-101.108-.488c1.449 1.549-1.918 2-2.463 2.474-.92-.796 1.004-3.763 2.463-2.474m196.004-.585c.109.084-2.029 2.988-2.078 2.988-.031.001.477-.746 2.078-2.988m-589.245-.066c.203-1.054-.024.54-.27 2.137-.188 1.233-.382 2.47-.397 2.47-.011-.001.152-1.16.667-4.607m74.113-.424c.314-.014.469.592.513 1.198.046.599-.011 1.198-.117 1.198-.106.001-.254-.599-.396-2.396m522.939 1.601c1.615-2.914 2.803-1.457 1.151.68-.374-.221-.762-.452-1.151-.68m-422.925-1.202c-4.432-.171 7.896-.945 0 0m189.729 1.482c-.144-1.961.842-3.923 1.506 1.934a1.126 1.126 0 0 1-.271.035c-.817 0-1.164-.985-1.235-1.969m-211.362-1.996c.364.816-.907 1.359-1.381 1.604-.194.073-.316.108-.391.108-.488.001 1.516-1.573 1.772-1.712m2.921.693a1.609 1.609 0 0 1-.184-.024c.064-.007.129-.007.188-.011.09-.651.43-1.376 1.156-1.422-.344 1.874-.691 2.497-.92 2.497-.2 0-.307-.486-.24-1.04m168.834-1.726c.835 1.601.923 2.133.746 2.133-.354-.001-1.695-1.948-.746-2.133m-176.827.728c-.547.371-.944.645-1.196.816.013.003.018.01.022.014a71.4 71.4 0 0 0 1.191-.816c-.007-.003-.017-.011-.017-.014.126-.091.249-.179.406-.277-.056.05-.207.158-.389.291.601.585.683 1.335-.685 1.702-.044-.504-.238-.76-.507-.886-.462.312-.678.441-.022-.014-.499-.218-1.256.034-1.844.168-.407-2.458 2.021-1.955 3.041-.984m-143.321 1.766c.505-.883.333-1.721-.362-2.41.205-.869 1.142.192 1.625 1.257.357.781.47 1.573-.148 1.573-.247 0-.607-.123-1.115-.42m464.671-.772c-1.24-.938-5.447-4.294 0 0m-292.696-2.371c1.415.228 2.669.753 2.243 2.498-.832-.361-2.508-1.65-2.243-2.498m-272.565.711c.212-.62.503-1.229.397-.34-.36.827-.525 1.118-.574 1.118-.054 0 .045-.389.177-.778m388.043-.844c-.077.665-1.514.91-2.517.91-1.334.001-1.897-.433 2.517-.91m278.442 3.468c-.954-.651-1.174-2.406-1.459-3.615.709-.112 2.364 2.757 2.404 3.889a1.566 1.566 0 0 1-.683-.127c-.874 1.353-1.231 1.825-1.289 1.825-.092 0 .528-1.155 1.027-1.972m-603.551-2.305c1.17-2.617.774-1.167.261.28-.305.861-.647 1.73-.725 1.73-.059.001.046-.535.464-2.01m221.137 6.869c-5.137-14.157-1.263-7.488 1.841-.819 1.752 3.776 3.26 7.549 2.748 7.549-.354-.001-1.687-1.826-4.589-6.73m123.097-6.883c-1.22.393-1.152.806-2.678.925.184-1.808 2.414-4.393 2.678-.925m166.895 1.783c-3.221-.34.459-7.976 0 0m-447.554-3.384c-.512-.206-.956-.409-.567-.333 1.238.512 1.597.69 1.541.69s-.539-.178-.974-.357m-106.631 1.006c.788-1.518 6.172-3.034 4.772 1.495-.387.011-.742.024-1.075.024-3.334.001-4.092-.755-3.697-1.519m592.788-1.717c.397.7.576 1.737.495 1.737-.049.001-.214-.448-.495-1.737m-6.852 1.331c3.903-3.064 3.903-1.005 2.912 1.058-.634 1.307-1.663 2.606-2.355 2.606-.588 0-.928-.949-.557-3.664m-297.147-1.128c-.275-.585-.517-1.17.044-.203.285.683.371.925.351.925-.032 0-.218-.36-.395-.722m-179.385 1.005c3.934-2.645 2.921-1.754 1.623-.872-.651.448-1.371.887-1.579.887-.02 0-.035 0-.044-.015m362.892.34c1.785-3.212 2.673-2.094 2.329-.977-.175.563-.665 1.128-1.513 1.131a2.39 2.39 0 0 1-.816-.154m25.785-.108c-.512-1.016 9.048-4.4 0 0m44.594-1.87c1.13-1.404.496-.532-.17.347-.41.55-.837 1.089-.856 1.089-.012-.001.251-.375 1.026-1.436m-87.091-.887c.156-.234 1-.031 1.808.176.633.157 1.249.318 1.503.266-.464.635-1.49.981-2.324.981-.937 0-1.629-.446-.987-1.423m-153.349 1.401c-1.817-2.392 3.962-2.925 0 0m-268.921-1.51c.276-.592 1.449-1.188 2.444.119-.874.393-1.479.543-1.877.543-.595.001-.721-.328-.567-.662m386.457-.686c1.477 1.068 1.234 1.534.727 1.534-.566 0-1.46-.574-.727-1.534m270.757-.119c1.378 1.065.664 1.913.075 1.913-.464 0-.853-.529-.075-1.913m-461.753.176c.101-.96 1.512-1.927 1.754.917a3.41 3.41 0 0 1-.593.053c-.928-.001-1.215-.484-1.161-.97m-154.611.543c-.328-1.562-.346-1.43 1.049-1.602.086.827.046 1.602-1.014 1.602h-.035m142.171 4.605c-8.434-9.85 5.654-6.777 0 0m-76.482-5.488c.223-2.084.126-.719.018.651-.075.858-.156 1.716-.168 1.716-.013 0 .022-.616.15-2.367m522.563-1.381c.475 1.094.276 1.485.011 1.485-.362 0-.861-.735-.011-1.485m-214.616 2.459c-5.34-5.453.893-.546 0 0m-266.856 3.202c-4.812-.399 8.086-13.059 0 0m-32.425-4.778c-1.401-.994 1.942-2.883 0 0m292.478 1.068c-2.222-4.833.592-2.062 0 0m16.408-1.096c2.748-3.675 3.324-.042 1.263.203l.539 1.87c.582 2.144-.214-.665-.552-1.867a2.255 2.255 0 0 1-.224.011 2.77 2.77 0 0 1-1.026-.217m-100.473-1.244c.605-1.229 1.664-.665 1.993-.095.188.322.138.642-.338.642-.331 0-.856-.15-1.655-.547m184.705.284c1.779-.872 3.938-1.752 1.601-.186-2.194.91-3.132 1.236-3.337 1.236-.259.001.669-.524 1.736-1.05m-428.384-1.079c2.29 0 3.084 5.538 2.322 5.538-.381 0-1.154-1.383-2.322-5.538m378.226 1.693c.353-.922.715-1.843.692-1.738a393.423 393.423 0 0 1-1.347 3.482c-.008 0 .326-.872.655-1.744m-135.752-2.183c1.797.529.767 1.856.106 1.856-.391.001-.651-.465-.106-1.856m145.567 2.095c.271-1.055.723-1.64 1.436-2.428.276.547-.62 2.596-1.19 2.596-.093 0-.179-.049-.246-.168m-560.329-1.861c3.907-1.298.324-.062 0 0m286.32.141c1.156-1.03 1.353-.642 2.54-1.146.453 1.079-.372 1.495-1.242 1.495-.493.001-.997-.132-1.298-.349m337.107-1.177c.746-.302 4.008.325 3.382 1.338-.392.638-.821.89-1.23.89-.973 0-1.875-1.36-2.152-2.228m-401.359 1.541c.122.448-.033.731-.474.858-.662-2.357-.651-4.003.474-.858m524.491-.014c.156-.182 1.986-3.285 2.231-1.152.058.558-1.035 1.479-1.73 1.479-.228-.001-.406-.099-.501-.327m-532.188-2.284c.626-.669.922.122.986.903.046.582-.042 1.156-.228 1.156-.173.001-.433-.518-.758-2.059m-21.553-.284c-.13-.844.362-.451.616-.056.146.221.219.444.066.444-.104.001-.316-.104-.682-.388m300.29 1.391c-2.293-4.427.138-.144 0 0m17.31.68c-6.095-4.708 3.568-2.442 0 0m-97.588-1.745c.45-1.986 1.744-1.093 2.194-.207.254.49.245.988-.309.988-.365.001-.966-.213-1.885-.781m191.409-.511c1.706-2.351 1.96-1.485 1.576-.623-.207.448-.576.896-1.004.896-.183 0-.379-.081-.572-.273m5.199.511c-3.619-1.86 5.812-4.063 0 0m-11.39-2.308c.914.929 2.231 1.598 3.293 2.357a1.61 1.61 0 0 1-1.102.438c-1.473 0-2.958-1.908-2.191-2.795m-429.34 1.947c-.604-.809.506-2.984 1.042-1.376.037.567.191 2.038-.275 2.038-.168 0-.413-.181-.767-.662m36.542-1.068c-.481-1.695 1.587-.977 2.538-.252.519.389.711.781-.022.781-.45 0-1.244-.143-2.516-.529m-13.422.635c.179.662-.032 1.265-1.271.729-.194-1.962.289-2.105.727-1.688 2.045-3.743 2.061.671.544.959m238.798-1.384c4.082-2.039 4.8-1.124 4.091-.21-.397.508-1.231 1.016-2.177 1.016-.625-.001-1.295-.221-1.914-.806m-74.623-.572c3.534-1.583 2.916-.375 1.766.189.338-.031 1.016-.042 2.265.004 3.157.906-2.053.371-2.492.102a2.062 2.062 0 0 1-.711.146c-.334.001-.636-.118-.828-.441m293.942-.836c2.048-.242 2.829.263 2.913.774.062.42-.357.833-.946.833-.58 0-1.334-.402-1.967-1.607m-83.209 1.008c.17-.757.802-1.51 1.998-.792a18.626 18.626 0 0 0-1.223 1.587c-.182.2-.338.28-.464.28-.311.001-.432-.536-.311-1.075m-512.595-.511c2.707-1.499 3.119-.206 2.698 1.079-.285.876-.961 1.751-1.565 1.751-.548 0-1.044-.721-1.133-2.83m16.638-.795c-.24.06-.326.084-.329.084-.013 0 .255-.077.329-.084m505.177 1.152c-1.775-1.892-1.07-1.181-.393-.462.361.374.71.746.695.746-.008 0-.097-.081-.302-.284m-388.865.841c-4.379-1.583.963-3.72 0 0m440.927-1.513c.29-.631 1.521-1.255.856.616a2.325 2.325 0 0 1-.214.011c-.691 0-.784-.312-.642-.627m17.006-.715c1.263.546 2.905 1.307 2.588 2.658-1.164-.357-3.065-1.222-2.588-2.658m-29.275-.337c5.238.648 4.944.876 3.252.876-2.497 0-8.038-.497-3.252-.876m90.504.828c.161-.918 1.115-1.839 1.355.718-.32.154-.58.221-.779.221-.536-.001-.666-.47-.576-.939m-605.997-1.023c.014.018.029.034.045.052 0 0-.019-.018-.045-.052m-.026-.032h0m-.032-.038c.001.003.007.007.009.007-.002 0-.008-.004-.009-.007M555.847 387.688c.972 2.284.918 3.048.569 3.048-.633-.001-2.24-2.492-.569-3.048m-260.309-.19c1.372-.305 1.591 1.615-.019 2.154a2.895 2.895 0 0 1 .019-2.154m23.866 1.275c7.373-2.536 6.119-1.649 3.802-.76-1.177.444-2.628.896-3.356.896-.227.001-.384-.041-.446-.136m124.635 1.118c-2.298-4.438-.993-2.749.016-1.071.525.882.967 1.765.771 1.765-.098-.001-.337-.2-.787-.694m372.51-2.844c.188.175-1.496 1.979-1.611 1.979-.058-.001.311-.498 1.611-1.979m-463.109-.183c.399 1.058 1.625 2.967 1.699 3.766-.181.08-.349.115-.505.115-1.607 0-2.039-3.779-1.194-3.881m479.685 1.181c1.245-2.361 1.812-1.419 1.701-.466-.063.501-.322 1.009-.772 1.009-.251 0-.563-.15-.929-.543m-252.094-1.64c2.671 3.051.567 4.827-1.013 4.827-1.441 0-2.444-1.485 1.013-4.827m-216.549.516c-.187-.677-.064-1.359.975-.768.096 1.32-.07 1.762-.297 1.762-.234 0-.539-.49-.678-.994m147.195.945c-.212-3.149 1.174-2.088 1.375-1.026.104.532-.091 1.064-.932 1.064-.132 0-.277-.009-.443-.038m-62.035-2.245c1.009.938 3.296.519 3.192 1.762-1.115-.199-3.709.157-3.192-1.762m484.926 1.901c-.678-1.733 7.364-3.506.062.032a.243.243 0 0 0-.062-.032m-215.827-1.39c.66-.7 2.143-1.394 2.28.085-1.146.518-1.842.711-2.223.711-.538 0-.426-.397-.057-.796m141.758-.82c1.119.68.58 2.841-.585 3.03-.375-1.407-.815-2.451.585-3.03m-81.139.876c.343-2.144 3.038-.406 3.206 1.384-1.805-.312-1.744-1.216-3.206-1.384m87.558.259c1.557-2.343 2.338-1.212 2.326-.073-.011.638-.277 1.289-.808 1.289-.374 0-.878-.329-1.518-1.216m-47.166-1.842c1.369.627-1.152 2.7-1.808 2.7-.375.001-.134-.679 1.808-2.7m-197.268-.056c.002.218-4.026 2.161-4.172 2.161-.077 0 .929-.546 4.172-2.161m-167.319-.171c.702 4.883.805 6.515.669 6.515-.266 0-1.457-6.424-.669-6.515m139.546-1.255c1.538.494 4.631.68 3.112 1.878-.113.091-.27.133-.455.133-1.035 0-2.902-1.268-2.657-2.011m313.487 1.009c-.139-.994.597-1.989 1.886.701-.36.234-.669.333-.918.333-.588 0-.896-.519-.968-1.034m-170.452-1.303c-.026.964-.566 1.278-1.094 1.278-1.055 0-2.082-1.278 1.094-1.278m-128.045 2.932c.711-2.718 3.259-5.443 6.072-.634-2.421 2.876-4.042 3.905-5.028 3.905-1.242 0-1.476-1.636-1.044-3.271m-289.344-1.38c-3.808-3.013-2.491-2-1.207-.984.643.508 1.278 1.016 1.254 1.016-.005-.001-.017-.011-.047-.032m667.977 1.496c3.711-6.823 1.976-2.978 0 0m-148.272-4.141c.853 1.724 1.031 2.302.932 2.302-.182 0-1.258-1.871-.932-2.302m-77.667-.035c-.384-.252-.7-.501.464.238 0 .007 0 .011-.009.011-.049 0-.265-.126-.455-.249m-75.096.196c1.188-1.047 1.79-.574 3.062.479-.371.452-.72.631-1.062.631-.639.001-1.259-.595-2-1.11m142.713-.539c.054-.13.135-.26.026.06-.039.06-.059.08-.067.08-.018 0 .008-.066.041-.14m-39.526 3.062c-2.124-6.88 3.057-1.083 0 0m-470.185-3.51c1.247.42.514 1.376.049 1.376-.281 0-.46-.349-.049-1.376m436.454.508c-.735-.711-.438-1.423 3.108-.004-.254.606-.718.819-1.221.819-.691 0-1.457-.406-1.887-.815m-414.383.676c-.227-3.654.073-.904 0 0m665.836-.991c-.634-2.351.035-.585.634 1.181.393 1.155.754 2.312.71 2.312-.041-.001-.398-.898-1.344-3.493m-88.148-1.374c.023.406-2.418.854-3.016.854-.427.001.066-.227 3.016-.854m-518.483 1.248c-2.967-1.342 2.504-1.254 2.672-1.321.13 1.479-.257 1.931-.857 1.931-.51-.001-1.17-.316-1.815-.61m415.211.391c-.098-2.945 1.549-1.933 1.843-.921.147.515-.049 1.026-.989 1.026a4.185 4.185 0 0 1-.854-.105m-98.957 1.163c-2.414-1.621 11.212-6.097 0 0m-54.074-1.691c.701-.386.447-2.532 2.009-.816.768 1.142.263 1.724-.464 1.724-.528-.001-1.173-.299-1.545-.908m-194.35-1.874c2.186-.326 3.013.137 3.068.599.041.351-.374.704-.984.704-.59 0-1.364-.33-2.084-1.303m275.589-.263c.949-.084 1.373.298 1.468.669.079.347-.095.69-.394.69-.295 0-.704-.343-1.074-1.359m-377.026-.13c2.04-.091 1.307 2.617.313 3.422-1.042-.479-.402-2.567-.313-3.422m666.831-.045c1.829-.543 3.247-1.269 4.902.221-.156.203-.744.279-1.454.279-1.378 0-3.234-.287-3.448-.5m-240.733.2c.643-1.016 1.32-2.035.089.021-.562.84-.781 1.152-.799 1.152-.022 0 .34-.585.71-1.173m-409.316-.316c-1.84-1.236-3.637-2.479 1.857 1.205.032.024.042.038.037.038-.037 0-.973-.619-1.894-1.243m559.435-.784c-.473-.49.044-.978 3.225-.494-.035.886-.638 1.188-1.324 1.188-.734-.001-1.564-.351-1.901-.694m-175.703-.834c.57.508 1.234.806 1.998.89-.116.417-.441.596-.799.596-.664-.001-1.441-.621-1.199-1.486m-417.18-.108c.055.697-.188.932-.419.932-.385-.001-.74-.67.419-.932m342.102.157c-8.198 0 .069-.897 0 0m-319.017 1.012c1.42-2.176 1.196-1.443.741-.711-.229.367-.514.735-.679.735a.082.082 0 0 1-.062-.024m471.068-.392c.052-.351 5.49-2.406 0 0m-223.673 1.205c.397.567.723 1.664.723 2.406-1.459.309-.848-1.31-1.97-1.45.307-1.513.782-1.552 1.196-1.029.944-1.574 2.888-4.424.051.073m143.737-2.424c.309.389.648.402.986.028 1.093 1.19.357 1.737-.437 1.737-.843.001-1.753-.626-.549-1.765m-337.914 2.196c2.654-4.14 2.643-2.304 0 0m453.387-.844c-6.081-1.674 1.517-2.658 0 0m-368.459-1.908c.292-.158.53.035.634.228.077.146.084.29-.022.29-.097-.001-.293-.134-.612-.518m-165.193.567c-.493-.69.729-1.384 2.671.676a6.493 6.493 0 0 1-.506.021c-1.234-.001-1.914-.35-2.165-.697m227.762-1.507c1.613 2.105 1.225 2.894.527 2.894-.917 0-2.372-1.367-.527-2.894m-236.895.024c.749-.188 1.263.176 1.481.54.179.298.156.596-.086.596-.238 0-.697-.284-1.395-1.136m530.9 1.528c.553-.97 1.271-2.63 2.588-1.51-.438.719-.937 1.92-1.74 1.92-.251 0-.531-.119-.848-.41m3.791-.928c.527-.974 1.433-1.951.871.259-.598.596-.938.823-1.093.823-.25 0-.072-.539.222-1.082m-389.567-.263c.255-.669.515-1.338.133-.333-.333.876-.452 1.184-.452 1.184-.003 0 .158-.427.319-.851m302.209-.385c2.384-.953 1.897-.298 0 0m120.84.522c-.335-1.531 1.196-3.059 3.177 1.4a4.335 4.335 0 0 1-1.062.141c-1.299 0-1.945-.774-2.115-1.541m-543.368-1.657c.994.55 1.247 1.797.987 1.797-.155 0-.504-.455-.987-1.797m-32.131-.021a20.06 20.06 0 0 1 1.27-.099c1.163.34.243 1.801-.52 1.801-.412.001-.783-.43-.75-1.702m78.105.897c.33-.9 1.883-1.804 3.43.14-1.198.642-2.04.88-2.599.88-.809-.001-1.017-.508-.831-1.02m374.034 1.099c-1.915-2.203-2.348-4.41 4.019 2.035a1.19 1.19 0 0 1-.672.199c-1.035.001-2.379-1.112-3.347-2.234m7.416-1.898c-.795.413-1.401.693-1.843.883-.058.28-.126.589-.21.991-.066.038.014-.441.124-.956-.356.146-.583.217-.735.245-1.574 2.396-1.58 1.537-1.128.687.249-.463.638-.932.98-.865-.106.137-.075.21.147.179.018-.031.031-.046.049-.081a.384.384 0 0 0-.196-.098c.156-.207.577-.532 1.059-.816-.06.221-.117.49-.176.75.028-.015.059-.021.086-.035.07-.326.125-.574.156-.757-.022.011-.046.028-.066.042.119-.497.199-.725.066-.042.802-.467 1.713-.778 1.687-.127m10.247.298c-.21-1.107.641-2.207 2.609.589-.544.416-1.003.585-1.378.585-.709 0-1.121-.585-1.231-1.174m-195.981-1.857c5.388 2.936-.332 5.142-1.559 3.643.158.459.287.883.359 1.149-2.231-.445-2.386-1.808-2.046-3.854.522.046 1.068 1.097 1.47 2.134-.039-.669.405-1.657 1.776-3.072m-56.528-.287c.632.952.248 1.117-.368 1.895-.289-.998-.683-1.191.368-1.895m312.779.105c-.104-.153-.193-.29-.269-.406.148.22.272.406.269.406m-91.159.918c-.799-1.289-1.401-2.574.998.929.086.283.086.399.031.399-.137 0-.605-.666-1.029-1.328m90.654-1.674c-.424-.624-.254-.375 0 0m-121.228 2.378c1.562-4.284 1.889-2.834 1.456-1.394-.225.721-.643 1.449-1.188 1.449a.6.6 0 0 1-.268-.055m-247.525-1.177c-1.238-1.741-1.744-3.481 2.364.844.072.729-.079 1.017-.347 1.017-.481-.001-1.355-.933-2.017-1.861m-104.079-1.951c1.887 1.362 2 1.86 1.58 1.86-.581 0-2.175-.939-1.58-1.86m-55.131 3.201c-3.904-2.62 5.471-7.636 0 0m26.724-3.124c-.222-1.521-.418-3.051.249 1.488.002.032.002.046 0 .046-.022 0-.137-.763-.249-1.534m514.137.42c-.88-2.01-1.494-4.018 1 .761.271 1.026.307 1.422.199 1.422-.17 0-.722-1.09-1.199-2.183m37.009-.76c1.343-2.539 1.632-1.667 1.289-.795-.17.441-.508.879-.951.879a.733.733 0 0 1-.338-.084m-457.404-1.923c-.442 3.064-.751 4.088-.901 4.088-.286 0-.015-3.703.901-4.088m312.216 4.438c-5.393-7.941 6.45-4.809 0 0m-33.441-4.714c1.741-.399 1.71.017 1.214.434-.352.295-.937.596-1.28.596-.326-.001-.433-.263.066-1.03m-32.258.133c4.782-1.401 3.35-.669 1.404.073-1.142.428-2.457.862-2.801.862-.259 0 .035-.249 1.397-.935m-391.334-1.128c.693.444 1.955.038 1.592 1.3-.656.259-1.42.57-1.882.57-.532 0-.649-.424.29-1.87m458.483.287c-.05-.322.325-.651 1.601-.599.022.899-.355 1.201-.748 1.201-.398.001-.81-.301-.853-.602m223.53-.732c-.077.666.445.869.505 1.419-.287.386-.55.536-.764.536-.758 0-.98-1.843.259-1.955m-285.126.147c-.317-.126-.116-.249 1.628-.088-.025.189-.303.253-.628.253-.366 0-.79-.084-1-.165m68.903 2.312c.206-1.247-.183-1.793-1.618-1.408-.724-2.739 4.808.29 1.618 1.408m151.482-.943c.969-1.078 2.307-2.161 2.575-1.278-2.24 2.151-3.244 2.88-3.516 2.88-.293 0 .221-.803.941-1.602m-203.21-1.565c-.562-.55-.4-1.097 2.146.073-.168.396-.467.543-.798.543-.483 0-1.025-.308-1.348-.616m-134.646.739c-.016-.007-.026-.014-.046-.018-3.45-2.501-.532-1.479 1.446-.455 1.561.809 2.54 1.614-.667.687.261.329.194 1.029-.716 2.248-1.69-1.285-.834-2.315-.017-2.462m158.46-1.384c.732-1.38.995-.764.929-.137-.04.347-.183.69-.401.69-.144.001-.326-.149-.528-.553m-28.876-1.344c.406.263 3.578 2.014 2.9 2.938-.79-.672-3.476-1.716-2.9-2.938m-283.749-.508c2.187 1.026 1.491 1.667.653 1.667-.735 0-1.581-.501-.653-1.667m558.164.21c.66-.172 1.37-.186 2.033-.333.104 1.128-.357 1.965-.888 1.965-.401-.001-.851-.469-1.145-1.632m-4.561 1.229c.135-2.158 3.967-2.395 0 0m-279.41-2.004c.415.26-1.058 2.778-1.245 2.778-.093.001.17-.697 1.245-2.778m-306.387.123c1.779-.428 4.075-.854 4.261-.55-4.154.9-5.9 1.201-6.283 1.201-.401.001.66-.328 2.022-.651m400.161-1.11c1.057-.494 1.093.312 1.788 1.261-.775.606-1.223.837-1.468.837-.579 0-.089-1.275-.32-2.098m-70.093 1.265c1.409-1.485 3.042-2.978.628.042-1.343 1.222-1.919 1.674-2.026 1.674-.151-.001.584-.859 1.398-1.716m114.686.265c-1.516-.892 7.157-4.574 0 0m-346.65-1.933c.548-1.194 2.331-.259 1.492.929-.246.351-.501.49-.729.49-.508 0-.879-.694-.763-1.419m-48.865 1.516c-.016.067-.002.123-.046.189-.115.322-.278.361-.443.294-.073.067-.122.119-.194.186a2.76 2.76 0 0 1 .116-.206c-.646-.431-1.326-2.771-.135-1.685.219.297.541.567.676.857 1.328-1.722 3.39-2.979.026.365m-86.652-2.055c.439-1.229 1.109-.774 1.177-.326.034.235-.098.47-.5.47a1.978 1.978 0 0 1-.677-.144m-41.707.532c-1.394-.574.326-1.355.638-1.919 1.063.325 1.613 2.098.245 2.098-.234 0-.529-.056-.883-.179m523.142-.259c-.17-2.768 6.322-2.228 0 0m-219.843-1.993c.033.024 1.084.283 1.75.645l-.06 1.036c-.139.05-.276.063-.42.063-.965 0-1.835-.984-1.27-1.744m315.99-.337c-.017-.007 2.303-.234 0 0m-223.495.659c-2.618-2.995 3.293-1.384 0 0m115.169 3.485c-.781-11.121 5.296-2.154 0 0m-504.18-5.002c-.298-1.079-.044-.245.196.585.163.546.313 1.096.31 1.096-.007 0-.136-.431-.506-1.681m677.893.105c-1.263-.196 1.018-2.848 1.315.13-.435-.042-.882-.084-1.315-.13m-444.372-.305c.344-.385.598-.815.772-1.303.858-.351 1.086.203.927.757-.123.435-.481.868-.965.868-.222.001-.472-.09-.734-.322m277.717-1.618c.009-.003.174.228.329.463.147.228.297.455.286.455-.004 0-.159-.227-.615-.918m-436.702 1.534c-.804-.949-2.033-2.417-.697-.872.301.368.525.634.709.854.406-.521 1.447-1.824 1.154-1.404-.604.757-.96 1.188-1.146 1.415.871 1.051.543.673-.011.018-.1.115-.145.172-.146.172-.006 0 .047-.07.137-.183m-69.45-3.022c2.569-.312 2.271 2.15 1.485 3.429.611-.171 1.266-.15.868-1.527 3.297 1.37.771 3.304-1.66 2.263.004-.021.018-.024.02-.045a.33.33 0 0 1-.105.014c-.534-.001-.947-1.021-.608-4.134m474.545 1.429c1.035-2.406 1.886-1.934 1.373.417-.467-.13-.918-.27-1.373-.417m-57.559-1.664c-.133-.034 1.143.057 2.298.145.964.073 1.834.144 1.736.144-.104-.001-1.156-.072-4.034-.289m-431.153 1.628c-2.128-3.457 3.102-2.027 0 0m636.952-1.211c-.669-1.281-.978-2.561 1.079 1.271a.2.2 0 0 1-.066.015c-.261 0-.678-.642-1.013-1.286m-525.308-.606c-2.328-.774.795-2.144 0 0m-11.323.102c1.505-1.618 3.09-3.24-.201.444-.963.978-1.349 1.346-1.384 1.346-.051 0 .755-.898 1.585-1.79m348.932-2.113c-1.075-.157-2.106-.315-1.34-.225 2.364.357 3.132.474 3.097.474s-.91-.123-1.757-.249m35.189 4.291c-3.301-7.068-1.226-4.704-.075-2.344.575 1.181.92 2.361.236 2.361a.644.644 0 0 1-.161-.017m-130.726-2.999c-2.148-1.67 1.205-3.11 0 0m213.431-1.965c2.904 1.149 1.978 2.074.92 2.074-.834.001-1.75-.577-.92-2.074m-107.196-.101c1.834.351 2.414.47 2.373.47-.063 0-2.136-.386-2.373-.47m-78.406-.018c-.663-.55.554.432 1.771 1.408.969.785 1.933 1.566 1.924 1.566-.004.001-.932-.749-3.695-2.974m193.923-.493c3.903 1.979 4.89 2.654 4.599 2.654-.478 0-4.282-1.754-4.599-2.654m47.979 1.261c-5.42-1.359-2.538-2.956 0 0m-261.699.273c.182-.659.364-1.321.534-1.986 1.553.301 1.651 2.08.126 2.08-.198 0-.414-.027-.66-.094m-263.856-2.438c-.876-.315-1.319-.627 1.499.26-.024.045-.099.062-.2.062-.296 0-.855-.164-1.299-.322m92.903.883c-.929-1.979-1.79-3.958.872 1.604.112.294.154.417.137.417-.041 0-.536-1.009-1.009-2.021m-99.227-3.02c.194 1.177-.832 2.066-.569 3.671a2.177 2.177 0 0 1-.368.035c-1.718 0 .278-3.117.937-3.706m500.531.585c3.097-.9 2.132-.588 1.07-.273-.531.161-1.093.322-1.159.322-.023 0 .005-.017.089-.049m-136.524 2.298c-4.779-6.742 2.623-2.318 0 0m-299.111-3.961c.834-1.419 1.34 3.786 1.34 3.916-.934-.127-1.693-3.321-1.34-3.916m236.341-.053c1.45-.516 1.66-.099 1.419.325-.165.277-.525.561-.839.561-.289 0-.543-.228-.58-.886m166.941-.434c1.491-.105 1.929.322 1.871.75-.049.385-.501.767-.946.767-.443-.001-.884-.379-.925-1.517m-350.863 2.097c-.342-4.879 3.115-.157 0 0m-84.707-2.462c.489.172-.797 2.504-.986 2.504-.098 0 .098-.623.986-2.504m309.391.824c-.2-1.601 4.592-1.468 0 0m133.638-.936c.195 1.32-.416 1.058-1.039.799-.349-.147-.7-.294-.911-.165-.623-1.762 1.635-1.51 1.95-.634m-184.638-.808c-1.9-.768-.883-.379.108.018.58.228 1.15.458 1.137.458s-.349-.13-1.245-.476m83.981.458c.046-.815.795-1.632 2.267-.195-.687.865-1.223 1.177-1.598 1.177-.476-.001-.7-.495-.669-.982m-307.831-1.8c1.861-2.326 3.937 2.192 3.243 3.786-1.849-.599-1.809-3.104-3.243-3.786m394.002-1.499c4.622 2.967 3.223 4.462 1.37 4.462-1.838 0-4.112-1.471-1.37-4.462m-254.549.007c.584-.662.924.347 1.034 1.355.088.777.037 1.562-.146 1.562-.176.001-.475-.736-.888-2.917m234.426-.442c.861-.512 1.779.645 2.324 1.797.45.96.643 1.916.325 1.916-.316 0-1.119-.932-2.649-3.713m-344.206-.028c.262-.543.561-1.089.09.018-.242.445-.342.606-.357.606-.023 0 .115-.313.267-.624m-105.397 2.991c-2.426-1.586 7.588-7.31 0 0m362.605 3.048c-6.254-4.519 8.598-13.273 0 0m-57.069-7.135c.619-1.608 2.153-3.216 4.259-1.948-2.012 3.251-3.287 4.351-3.965 4.351-.709-.001-.759-1.206-.294-2.403m88.762-3.759c.254.683 1.673 1.022 2.342.739.232 1.229-.058 1.663-.517 1.663-1.067.001-3.061-2.304-1.825-2.402m-419.41 1.191c3.229-2.508 3.284-1.604 2.423-.693-.447.466-1.132.936-1.752.936a1.029 1.029 0 0 1-.671-.243m29.853-2.535c1.625.052 1.627.069 1.086.069-1.075 0-4.32-.069-1.086-.069m109.203-.68c2.006-.536 1.168.893.15 2.462-.755-.641.011-1.667-.15-2.462m348.253-.168c2.074-.554 2.771 1.517.929 1.947.061-1.125-.764-1.107-.929-1.947m-322.991-.284c.393.792-.117 1.058-.758 1.058-1.284-.001-3.097-1.058.758-1.058m285.272-.21c3.658 3.177 4.108 4.252 3.413 4.252-1.196 0-5.746-3.131-3.413-4.252m-26.53 1.6c-.928-3.176 14.06-1.741 0 0m-191.994-2.469c.123 1.58-.047 2.105-.252 2.112-.417 0-.987-2.073.252-2.112m130.26.266c1.102-.816 3.501-1.633.968.749-.345.05-.616.07-.826.07-.914.001-.69-.409-.142-.819m-317.044-1.051c-6.428-.743-3.505-.487-1.229-.238 1.14.13 2.117.256 1.669.256-.088 0-.233-.007-.44-.018m236.494-.854c.222.756.103 2.868.544 3.439a2.376 2.376 0 0 1-.749.147c-1.762.001-.09-3.495.205-3.586m-130.937.153c-.056.459-.102.907-.148 1.366-6.432-.987.472-2.119.148-1.366m-166.269 1.896c-.095-1.097 1.579-3.982 2.375-1.293.345 1.178-.778 2.105-1.598 2.105-.415 0-.753-.238-.777-.812m221.212-2.578c1.445.417 7.193 2.249 7.037 3.198-1.735-.256-7.037-1.072-7.037-3.198m12.785-.599c4.38-1.229 4.042-.732 2.797-.242-.666.263-1.59.529-2.196.529-.334 0-.568-.081-.601-.287m300.675.612c.674-1.131 2.378-1.996 3.773-.851a6.27 6.27 0 0 1-3.234.872 6.099 6.099 0 0 1-.539-.021m-5.233-1.344c1.415-.795 1.438-.444 1.089-.095-.192.192-.499.382-.744.382-.157 0-.287-.077-.345-.287m-120.366-.782c1.57.13 1.594 2.284 1.058 3.296h-.093c-1.223 0-.848-2.269-.965-3.296m238.515-.273c.236-.854.313-.563.25-.276-.031.144-.098.291-.201.291a.148.148 0 0 1-.049-.015m-140.74-1.177c-.179-.133-.058-.266.923-.031-.079.14-.231.192-.393.192-.199 0-.418-.084-.53-.161m23.594.627c0-2.154 8.829-.066 0 0m3.223-3.856c.477-.062.938-.122 1.405-.179-.144.719-.62 1.321-.978 1.321-.267 0-.464-.326-.427-1.142m-340.79-.21c-.626-.746-.152-.36.248.024.235.228.44.452.396.452-.039 0-.219-.126-.644-.476m160.174 1.468c-4.394-7.287 4.61-3.371 0 0m-59.368-4.81c.018-1.071.655-2.147 1.993-.231-.583 1.118-1.044 1.521-1.373 1.521-.42-.001-.633-.646-.62-1.29m-125.699-1.296c.331.936 1.022 2.634-.292 3.03-.33-.855-.792-2.743.292-3.03m191.153-2.627c-.014 1.156-4.506 7.181-4.774 7.181-.147 0 .969-1.801 4.774-7.181m-197.162.746c.97-1.66 2.089-3.32-.645 1.51-.105.122-.17.172-.194.172-.107 0 .343-.838.839-1.682m318.68-1.986c.603-1.135 2.436-1.555 3.028 0-.156.456-.552.617-1.03.617-.709 0-1.58-.361-1.998-.617m-370.243-2.952c2.23 2.104 1.975 2.921 1.224 2.921-.945 0-2.673-1.289-1.224-2.921m96.727-.985c.095-.189 1.134.108 1.96.399.641.228 1.152.458.98.458-.167.001-.978-.212-2.94-.857m-275.751-.245c.321-.617.802.133 1.117.882.254.585.402 1.174.313 1.107-.141.221-.278.309-.412.309-.638 0-1.174-2.008-1.018-2.298m237.542-.813c1.577-.466 2.182-.08 2.534 1.433-.911.249-1.353.543-1.638.543-.35-.001-.458-.449-.896-1.976m-63.008-.329c.454-.084.574.932.55 1.951-.028.978-.194 1.955-.34 1.955s-.264-.978-.21-3.906m96.603 1.471c-3.558-1.664 1.83-2.708 0 0m14.369-4.465c.655-.396.26-.018-.203.356-.318.263-.669.522-.716.522-.042 0 .173-.22.919-.878m302.733-.373c.585 1.913.348 2.564-.021 2.564-.603.001-1.575-1.726.021-2.564m-49.185.417c-.57-2.41.715-1.604.955-.799.121.403-.021.806-.79.806-.049 0-.106-.007-.165-.007m-141.977-1.698c2.347.466 1.499 1.513.697 1.517-.486 0-.953-.382-.697-1.517m42.281.182c1.252-1.258 1.439-.732 3.077.024-.15.238-.522.326-.969.326-.686 0-1.546-.2-2.108-.35m-116.424-.413c.383-1.104 2.195-2.21 3.515.424-1.158.561-1.991.781-2.559.781-.946 0-1.161-.603-.956-1.205m55.563-4.137c.861.221 1.995 3.397 1.955 3.94-1.387-.819-1.592-2.543-1.955-3.94m-180.382-2.803c.988.018 1.867.684 2.73.477 0 .596-.308.823-.722.823-.726 0-1.77-.697-2.008-1.3m268.504-1.982c1.183-1.075 3.051.529 1.843 2.008-.617-.673-1.222-1.346-1.843-2.008m-131.001.897c3.953-1.328 12.794-3.346 23.353.104v2.693c-10.274-3.131-18.821-1.523-23.353-.119v-2.678zm-58.262-6.266c-1.51-.355-.753-.305 0 0m58.262.574c3.953-1.324 12.794-3.345 23.353.105v2.696c-10.274-3.135-18.821-1.526-23.353-.122v-2.679zm295.345-1.709c2.808-.483 2.343-.309 1.468-.137-.445.091-1.008.179-1.284.179-.113 0-.179-.011-.184-.042m-517.303-1.026c-.783-.638-1.062-1.275 1.515.553-.062.067-.146.092-.245.092-.347-.001-.874-.327-1.27-.645m351.772 1.075c-4.483-5.118 1.099-1.167 0 0m-243.045-2.673c.812.165.808.217.552.217-.473 0-1.762-.175-.552-.217m67.75-8.439c.517-.287.305.449-.033 1.181-.283.624-.665 1.247-.775 1.247-.109 0 .041-.609.808-2.428m298.28-17.937c-3.149-1.38 1.548-1.849 2.025-.959.509.935-.017 1.365-.74 1.365a2.4 2.4 0 0 1-1.285-.406M628.23 288.718c0-3.794 3.324-7.591 7.112-7.591l4.562-54.783 4.559 54.783c3.792 0 7.119 3.797 7.119 7.591v.729c-10.274-3.135-18.821-1.527-23.353-.123v-.606zm-6.008-276.416c-3.38 1.776-9.962 3.198-14.233 6.757-4.269 3.559-16.363 12.981-23.122 15.476-6.76 2.486-11.741 6.046-17.786 8.004-6.048 1.958-9.783 5.691-9.072 12.099.711 6.402 5.691 9.422 11.028 9.422 5.336 0 9.07 2.848 9.07 2.848s-2.667 2.49-3.734 5.517c-1.068 3.02-5.515 5.688-5.161 8.357.355 2.673 4.093 4.449 4.093 4.449-9.249 3.733-6.758 11.559-6.758 11.559 1.599-5.867 5.867-6.225 5.867-6.225-7.646 14.765 2.137 21.703 2.137 21.703-2.489-5.695-.712-8.896-.712-8.896 2.491 9.604 13.162 12.81 13.162 12.81 1.068 3.912 3.559 12.095 5.338 17.075 1.777 4.981 7.825 11.385 7.825 11.385-2.488 1.779-9.96 5.338-13.874 7.828-3.915 2.487-1.778 2.13-3.915 4.624-2.133 2.49-3.203 4.623-6.758 8.894-3.556 4.266-6.405 4.266-9.608 8.179-2.303 2.812-2.393 7.271-2.263 9.562-3.521 1.604-7.589 3.184-11.547 4.753-3.14.785-8.282 3.051-12.633 5.717-.04.021-.073.045-.108.069-2.139 1.317-4.09 2.719-5.466 4.095-4.265 4.264-11.381 10.67-15.295 14.582-3.916 3.916-3.561 7.829-3.201 9.248.357 1.429-2.135 3.204-2.489 7.117-.357 3.916-2.492 6.046-4.98 9.608-1.053 1.495-2.355 4.837-3.512 8.192-1.28-3.86-2.249-7.09-2.461-8.911-.711-6.046-6.401-12.806-10.671-14.228-4.268-1.423-16.72-4.628-20.635-7.829-3.912-3.201-22.41-7.114-24.902-8.894-2.49-1.779-2.49-14.585-2.49-14.585 6.76-6.761 4.982-16.012 4.982-22.057 0-6.046 3.201-10.673 4.979-14.939 1.78-4.27-2.49-18.145-2.49-18.145s.713-9.251-1.777-12.81c-2.49-3.555-4.625-7.825-6.761-12.806-2.135-4.981-11.741-8.894-15.298-9.604-3.557-.715-12.808-4.981-18.5-4.981-5.691 0-12.45 4.624-14.94 2.845-2.49-1.776-11.03-.711-14.586 3.916-3.557 4.623-6.049 5.335-9.962 8.183-3.914 2.844-2.135 11.384-2.135 11.384s-3.557 2.133-5.691 8.183c-2.135 6.045 2.492 12.448 2.492 12.448s-1.068 3.913 1.066 7.118c2.133 3.201 2.846 5.691 3.911 12.806 1.069 7.114 4.98 21.699 9.25 28.46 4.271 6.76 15.299 16.719 17.432 18.498 2.135 1.779 1.779 8.182 1.779 8.182s-16.009 12.099-23.48 17.434c-7.47 5.335-10.315 10.673-15.652 15.297-5.336 4.627-5.336 10.315-5.691 16.722-.357 6.403-3.914 7.825-5.335 14.585-1.424 6.757 1.066 26.681.354 35.574-.711 8.894-3.199 32.376-3.199 32.376-2.848-6.761-8.54-16.365-11.03-22.414a8.72 8.72 0 0 0-.438-.869c-.112.134-.116.088-.041-.076-3.06-5.293-11.967-6.999-18.021-9.017-6.402-2.133-9.249-6.403-9.249-6.403 4.269 2.491 7.472 3.202 7.472 3.202s-5.337-10.315-1.779-19.209c3.557-8.894 1.068-14.943 1.068-14.943 2.846 2.137 3.555 7.829 3.555 7.829 1.068-6.406-1.42-13.167-6.401-18.145-4.98-4.98-6.049-14.585-6.76-22.414-.713-7.825-4.625-17.43-10.671-23.479-6.05-6.05-19.568-6.05-26.327-6.05-6.76 0-9.962-2.844-16.007-2.486-6.05.354-7.474 5.691-7.474 5.691s-1.066-2.137-6.048 1.065c-4.98 3.201-6.402 8.183-6.045 13.521.354 5.335-2.135 10.315-3.56 17.787-1.422 7.468.356 12.452 3.202 16.718 2.846 4.271 5.335 9.605 7.115 16.723 1.778 7.114 7.827 14.585 13.162 20.277 5.336 5.692 6.404 4.27 6.404 4.27l.354 6.046s-3.2 3.559-5.335 7.472c-2.135 3.912-11.386 10.673-15.654 13.521-4.268 2.844-6.402 9.247-8.182 13.159-1.778 3.913-2.489 9.605-3.202 12.099-.711 2.487.355 7.825 1.066 15.297.712 7.472-4.27 15.297-3.557 25.258.711 9.962-.713 16.008-2.135 21.346-1.424 5.335-2.135 18.495-2.135 18.495s-3.202-8.891-4.979-12.092c-1.779-3.201-4.98-11.741-5.691-16.364a16.744 16.744 0 0 0-.353-1.653c-.249.136-.969.01-1.369-.112-.479-.147-.494-.302 1.336.003-1.081-3.842-3.636-7.005-6.73-8.554-3.557-1.782-23.479-10.676-25.614-12.098-2.135-1.423-4.27-9.605-4.27-9.605s2.135-5.334 2.49-8.539c.357-3.198 4.269-15.65 3.558-20.277-.711-4.624.357-12.807-1.778-18.141-2.135-5.339-7.469-4.627-7.469-4.627s-4.271-4.624-11.03-6.046c-6.759-1.423-19.566 2.133-24.546 2.49-4.98.354-9.251-.715-9.251-.715l2.136 3.559h-1.78s2.136 4.271 2.136 7.472-.713 11.384.355 14.942a102.473 102.473 0 0 1 2.49 9.962c.711 3.556 2.846 16.361 4.625 20.988 1.778 4.624 7.114 6.403 9.249 7.472 2.134 1.065 3.202 5.335 3.202 5.335s-5.337 4.627-7.827 6.046c-2.489 1.426-11.739 7.117-12.095 12.099-.355 4.98-3.202 3.912-3.913 9.604-.713 5.691-2.848 13.521-4.27 20.988-1.424 7.468-4.981 32.372-4.981 32.372s-3.912-2.137-6.047-3.556c-2.135-1.425-5.335-.714-5.335-.714l-3.916-5.688c2.135-3.202 3.203-16.723 5.693-24.551 2.489-7.825-.355-14.936-2.49-19.563-2.133-4.623-8.896-10.673-14.229-9.961-2.829.378-5.454-.141-8.043-.662-2.294-.463-4.559-.925-6.898-.761-4.98.354-10.673 3.913-11.741 7.114-1.066 3.201-6.047 3.201-6.403 6.761-.355 3.559-.711 12.806.356 15.296 1.068 2.49 1.068 4.624.711 6.407-.354 1.775 2.49 18.497 5.336 24.54 2.846 6.049 11.03 3.912 11.03 3.912s-.357 1.783-2.135 4.27c-1.779 2.494 1.066 5.339 1.066 5.339s-7.827 6.76-11.386 10.315c-3.555 3.559-4.623 9.604-4.267 18.498.354 8.896-1.78 19.213-3.914 26.684-2.135 7.472-5.336 12.807-4.625 19.924.713 7.11 0 11.03-2.135 14.229-2.134 3.201-5.692 9.961-8.538 15.653-2.126 4.252-22.339 21.213-32.429 29.524 0 0 24.083-8.445 68.606-20.116l15.195-4.903 2.771-6.222 11.538-3.464h-6.927v-10.613l-2.074-1.846 2.536-2.305 5.307-13.615 4.85 11.307 2.304 1.843-.923 2.771v11.072l10.846-2.298v-3.699l-3.463-1.148 13.845-17.566 14.308 17.566 5.769-.406-17.997-18.751 49.377-6.459-14.943 26.422 6.174-1.265 21.689-48.691c3.923-3.688 16.609-7.149 44.299-9.233 27.688-2.074 42.917-18.684 42.917-18.684v-7.847l24.229-10.613v31.844l2.534-1.152v-41.073c16.843-13.381 37.611-12.69 37.611-12.69v63.245c-2.573-1.194-6.927-2.263-14.187-1.866-11.575.623-34.889 8.742-40.935 10.91v4.414c.113-.039 4.638-1.688 10.821-3.713v5.769a341.508 341.508 0 0 0-10.821 3.688v4.414c.289-.109 28.698-10.512 41.151-11.182 11.067-.599 13.847 2.533 13.857 2.533l.112-.07v7.227l3.229-.69v-8.69l.113-.077a2.683 2.683 0 0 0-.113-.15v-9.927l.113-.07a2.64 2.64 0 0 0-.113-.157v-72.99l14.536-6.69h17.999l37.607-12.554 22.149 19.476 6.462.689v6l-72.105-3.572v2.767l72.105 3.573v11.77l-78.452-3.457v2.998l78.277 3.229v4.673l-3.174 3.173v54.397l1.964 1.205 2.079-2.08v-51.564l3.744-4.038v-4.613l165.844 7.843v2.312l-3.926 3.227v41.63c4.164-.049 8.322-.102 12.514-.134l12.66-220.06s-6.401-1.422-6.401-8.066v-2.309c3.953-1.32 12.794-3.342 23.353.105v2.203c0 6.645-6.404 8.066-6.404 8.066l12.664 220.06c3.141.028 6.249.067 9.377.105v-59.035l26.602-4.834v59.929l2.503 2.508v-62.437l4.921 2.764 53.021-8.984v18.138l-2.075.272v54.068c1.691.084 3.382.158 5.071.235v-77.891l44.902-9.216v81.754l2.877 2.879v-85.092l68.971 31.318-14.967 2.073-13.822-6.448-33.619 3.457v2.991l30.167-2.764v48.821l3.109 3.106v-52.39l13.245 6.455v31.083l2.645 2.645v-33.728l26.367-4.382v59.872l3.34-3.342v-53.994l39.259 23.023v35.924l3.342 3.342V436.887l-2.94-2.938v69.021l-31.022-17.03v-50.205l7.134-11.748 18.508-4.157 1-5.171c-5.898-.588-10.532-5.74-10.532-12.084 0-6.743 5.21-12.207 11.634-12.207 6.421 0 11.631 5.464 11.631 12.207 0 6.344-4.636 11.496-10.538 12.084l.874 6.154 20.022 13.77 4.837 10.134v109.148l4.724-4.722v-28.435l53.075 30.621v-57.33l-2.874-2.886v54.457l-39.954-22.334V500.44l33.624-9.671v-23.03l15.891-8.287 11.505 10.13v31.079l20.187-13.598 5.27 10.631 11.755-7.916 1.69 3.408.366-8.984 2.159-2.154h.946c-.176-.203-.357-.378-.519-.605-3.002-4.165-1.967-9.314-1.275-11.598.191-.624.94-.915 1.508-.589 2.388 1.387 4.22 3.075 5.687 4.816l6.96-3.461c.251-.122.487.192.309.399l-5.139 6.042c1.405 2.382 2.207 4.62 2.604 6.123a1.723 1.723 0 0 1-1.557 2.179c-1.843.123-4.684-.095-7.107-1.898l.259 1.443.081 7.937 1.984-1.856 5.252 9.244 10.162-7.331 56.535 63.816-9.287 11.146 10.688 14.337v-8.525l10.596-4.141 37.077 23.714v6.725c53.154 13.528 82.134 23.749 82.134 23.749-6.326-5.464-17.836-15.205-25.955-20.873-11.747-8.183-18.852-19.566-21.709-28.813-2.846-9.251-1.061-19.924-.347-30.239.704-10.315 0-15.653-1.427-23.125-1.424-7.472-12.447-16.365-16.013-21.346-3.556-4.98-3.911-8.89-2.841-11.737s3.561-3.56 6.044-4.981c2.49-1.422 3.918-6.046 7.121-12.448 3.203-6.403 4.616-7.114 4.974-13.521.357-6.399 2.142-8.536 3.561-14.939 1.428-6.403 4.273-7.118 4.273-7.118l-3.203-1.775 3.912-4.27s-3.197-1.423-6.055-4.271c-2.846-2.844-7.819-.711-7.819-.711l3.912-2.49s-17.435-.354-20.638-1.068c-3.201-.711-11.023-1.064-17.076 5.338-6.046 6.403-8.892 15.297-7.821 20.628 1.066 5.342-2.132 3.205-1.785 8.543.357 5.339 1.785 8.183 4.271 12.095 2.488 3.913.718 9.962.718 9.962l-3.564 1.776s-2.842 3.559-7.824 5.335c-4.983 1.782-8.181 4.627-8.181 4.627s0-12.095.36-17.434c.352-5.331-.36-11.734-3.203-18.498-2.846-6.76-2.489-13.874-3.564-20.631-1.066-6.761-17.783-17.434-22.414-21.703-4.622-4.267-4.622-8.536-4.622-8.536s7.116-2.844 9.606-6.76c2.494-3.913 7.114-15.65 7.468-24.544.357-8.897 1.076-16.012 1.432-25.616.354-9.604-4.986-12.095-4.986-12.095s-.715-5.338-4.618-6.403c-3.917-1.067-10.319-6.406-15.306-6.406-4.979 0-13.514 1.426-17.069 3.559-3.561 2.134-5.691 4.624-10.322 7.472-4.627 2.845-8.887 16.719-7.473 24.193 1.433 7.468.714 19.209 4.987 25.255 4.265 6.049 5.331 13.521 3.203 16.365 0 0-.356 6.406-3.561 8.536-3.197 2.137-11.031 3.205-16.005 4.27-4.988 1.068-9.253 10.673-9.253 10.673s-3.918-12.806-3.2-18.855c.71-6.046-.718-11.737-4.63-19.92-3.913-8.183-4.265-18.855-5.331-23.836-1.076-4.981-11.39-16.365-17.796-20.277-6.401-3.913-13.512-9.962-13.864-13.521-.357-3.556-3.203-9.959-3.203-9.959s3.556-4.627 7.463-7.471c3.912-2.845 7.473-9.962 8.9-16.365 1.418-6.403 4.622-9.962 6.759-14.942 2.136-4.978 1.061-13.163.352-21.346-.709-8.179-.352-14.939-3.203-19.566-2.846-4.624-4.978-8.894-7.463-12.806-2.494-3.913-10.324-2.845-10.324-2.845-3.559-4.27-18.849-1.779-24.54 0-5.697 1.776-13.165.354-21.352 6.403-8.177 6.046-12.45 24.189-12.45 35.22 0 11.026-4.622 24.19-6.406 33.44-1.771 9.251.713 14.586.357 21.343-.357 6.76-7.474 9.962-13.162 13.521-5.691 3.559-10.671 10.673-10.671 10.673s-1.064-9.608-2.494-16.365c-1.418-6.76-5.334-21.346-3.907-30.95 1.419-9.607 1.062-14.231.353-21.699-.71-7.475-6.754-17.79-10.672-21.703-3.916-3.912-12.093-6.049-18.496-12.806-6.404-6.761-17.79-14.943-18.503-17.787-.709-2.848-.709-11.03 1.783-13.521 2.485-2.49 8.892-3.202 12.452-7.114 3.555-3.912 8.529-14.589 9.604-23.836 1.066-9.251 1.771-25.97 2.128-31.661.357-5.692 3.203-7.829 3.912-14.232.719-6.402-2.837-10.673-3.912-15.296-1.062-4.624-7.465-6.05-11.023-6.761-3.555-.711-5.691-.711-8.896-3.912-3.203-3.202-9.605-4.627-15.298-4.627s-5.335 2.848-10.319 4.627c-4.978 1.779-20.271 4.623-27.034 9.251-6.758 4.623-5.688 9.604-5.688 9.604s-3.916 6.049-3.916 13.517c0 7.475 1.776 17.434 1.776 17.434-4.265 2.49-3.556 9.604-1.419 16.007 2.132 6.407 6.05 7.829 6.05 7.829s.352 5.691 2.84 12.448c2.491 6.761 2.491 12.81 2.491 12.81s-1.776 7.829-3.556 8.536c-1.775.712-4.267 4.628-7.468 7.829-3.203 3.201-29.886 9.247-38.425 14.585-8.538 5.339-5.692 7.825-8.896 12.449-.87 1.265-2.097 2.504-3.413 3.804-1.231-3.481-3.141-6.665-4.483-9.135-2.137-3.913-1.78-8.361-2.492-12.273-.712-3.913-7.112-5.51-7.112-5.51-1.602-2.848-6.05-6.761-8.896-10.145-2.846-3.377-15.297-13.163-20.815-15.472a1024.072 1024.072 0 0 0-10.72-4.42c-.929-.904-1.865-1.724-2.816-2.361-.784-2.06-2.194-5.846-2.823-7.986-.894-3.022-5.161-9.426-9.431-12.806-4.271-3.38-12.451-9.962-16.006-15.297-3.561-5.338-15.48-8.36-15.48-8.36 5.161-5.156 7.828-18.853 9.252-23.658 1.423-4.802 2.137-7.471 4.805-9.783 2.667-2.312 4.979-8.715 4.979-8.715 3.913 3.556-1.066 8.715-1.066 8.715 12.45-3.912 1.958-17.072 1.958-17.072 3.734 3.377 9.249 2.487 9.249 2.487-6.403-2.669-11.028-11.209-11.028-11.209s9.426-1.951 6.759-5.692c-2.668-3.733-3.734-9.064-3.734-9.064 9.783-1.251 17.251-4.452 19.566-8.54 2.312-4.095-.179-8.718-3.382-11.388-3.203-2.669-4.091-5.155-7.116-6.224-3.024-1.068-9.961-3.202-14.76-5.867-4.542-2.529-7.843-5.646-12.099-7.636-1.496-1.156-3.235-2.2-4.962-3.097-4.282-3.355-9.287-8.54-12.291-11.149-4.09-3.559-16.187-7.828-22.416-8.719a12.406 12.406 0 0 0-1.687-.115c-5.813-.005-12.137 3.831-15.212 5.452"/></defs><clipPath id="b"><use xlink:href="#a" overflow="visible"/></clipPath><radialGradient id="c" cx="396.993" cy="407.856" r="2.846" gradientTransform="matrix(208.5564 0 0 -141.9509 -82155.531 58334.324)" gradientUnits="userSpaceOnUse"><stop offset="0" stop-color="#055f6a"/><stop offset="1" stop-color="#002a40"/></radialGradient><path clip-path="url(#b)" fill="url(#c)" d="M.742 6.845H1279v616.868H.742z"/></svg>