<svg version="1" xmlns="http://www.w3.org/2000/svg" width="933.333" height="933.333" viewBox="0 0 700.000000 700.000000"><path d="M351.5 39.2c-8.1 1-18.2 4.7-32.3 11.7-6.4 3.3-17.9 8.4-25.5 11.5-15.8 6.4-19.8 8.6-28.2 15.3-30.8 24.8-52.7 38.8-76.5 48.8-3.6 1.5-11.9 5.4-18.5 8.8-6.6 3.3-15.9 7.5-20.8 9.4-15.6 6-20 8.4-25.2 13.8-9.1 9.2-11.1 23.1-5.2 35.9 5.5 11.9 14.1 16.8 32.4 18.2 7 .6 18.5 4 22.9 6.9l2.5 1.6-3.6 4.2c-2 2.3-4.9 6.9-6.5 10.3-1.6 3.3-5.5 9.1-8.5 12.9-6.7 8.2-8.6 11.7-8.1 14.7.3 1.3.5 2.6.5 3 .2 1.2 5.8 7 8.6 8.8l2.8 1.8-4.1 2.1c-10.1 5.1-15.9 13.6-16.9 24.5-.6 6.5.9 9.9 2.2 4.9 1.1-4.7 6.5-11.1 11.1-13.3 2.4-1.1 4.6-2 4.9-2 .3 0-.6 2.2-2 5-1.4 2.7-2.3 5-2.1 5 .3 0-.1 1.5-.9 3.4-2 4.8-2.6 8.1-3.1 17.2-.4 9.2.5 13.5 4.6 21.9 2.4 4.8 8.1 12.5 9.4 12.5.1 0-.5-3.1-1.5-6.9-1.8-7-1.8-14.8 0-17.9.9-1.5 1-1.5 1.1.3.3 6 10.3 20.1 18.5 26.1 6.1 4.4 17.1 10.4 19.3 10.4.5 0 2.1 3.9 3.6 8.7 13.7 44.4 15.9 50.1 23.3 60.5 4.8 6.8 11.4 15 13.3 16.5.8.6 1.3 1.3 1 1.6-1.2 1-13.3 7.9-21.5 12.2-19.6 10.3-29.5 17.4-29.5 21 0 .4-2.1 3.5-4.6 6.9-2.5 3.3-5.5 7.4-6.7 9-5.9 8-14.3 18.3-16.6 20.4-1.4 1.3-6 4.8-10.1 7.7-16.2 11.5-20.5 18.4-21.3 34.4-.2 4.6-.8 6.7-2 7.6-1.6 1.1-28.6 12.1-43.7 17.6-6.5 2.4-17.2 7.6-25 12-8.9 5-16.9 11.5-34.2 28-9 8.6-19.1 18.2-22.5 21.4L0 661.3V700h700v-52.8l-3.3-2.8c-6.4-5.5-8.2-7-16.2-13.1-19.5-14.7-28.4-19.7-57.3-31.4-4.5-1.8-10.4-5.1-13-7.2-4.4-3.6-5-4.8-9.2-16.6-9.1-25.8-18-38.5-38.7-55.2-17.6-14.2-32.6-28.6-40.2-38.5-6.9-9-13.6-14.2-25.1-19.5-4.5-2.1-17.5-6.9-22.8-8.5-1-.3-.5-1.5 1.6-4.2 4.5-5.6 9.5-16.1 14.1-29.5 2.2-6.4 3.8-11.7 3.6-11.7-.3 0 0-1.2.5-2.6.6-1.5 2.9-9.2 5.1-17.3 6.4-23.5 8.6-28.4 16.4-36.7 4.3-4.7 9.3-12.8 12.5-20.6 2.7-6.5 4.1-6.4 6.1.2 1.5 5 .6 9.6-3.1 15.3-1.6 2.6-2.6 4.7-2.2 4.7.4 0 3.2-1.5 6.2-3.3 4.4-2.5 6.1-4.3 8.3-8.7 2.4-4.7 2.7-6.3 2.2-11.2-.7-7.8-3.8-15.6-10.1-25.4l-1.9-2.9 2.9 2.3c3.5 2.7 11.5 5.2 17.6 5.3 7.3.2 7.7-.1 3.1-2.2-7.3-3.5-21.5-18.7-28.5-30.6-.4-.8.3-1.5 2.1-1.9 1.5-.4 5.8-2 9.4-3.6 4.9-2.2 7.1-3.8 8.4-6.2l1.8-3.2-4.2-7.5c-3.3-6.2-9.7-22.9-8.8-23.4.1-.1 4.5-1 9.7-2 19.5-3.6 34.7-9.8 43.2-17.4 6.9-6.2 8.7-10.2 8.5-18.7-.3-6-.7-7.6-3.9-12.4-3.3-5.1-21.8-24.4-26.3-27.3-1.1-.8-6.9-3.1-13-5.1-24.4-8.4-32.7-12.4-52.7-25.5-17-11.1-25.9-16.7-30.8-19.4-2.9-1.6-11-7.9-15.6-12.2-.6-.5-6.6-6.2-13.3-12.5-6.8-6.3-14.2-12.8-16.5-14.4-6.1-4.2-20.5-10.8-34.1-15.5-19.9-7-31.2-9.1-41-7.9z"/></svg>